<?xml version="1.0" encoding="UTF-8"?>
<svg version="1.1" xmlns="http://www.w3.org/2000/svg" width="100" height="100">
<path d="M0 0 C2.3125 1.375 2.3125 1.375 4.3125 4.375 C4.3125 8.335 4.3125 12.295 4.3125 16.375 C22.1325 16.375 39.9525 16.375 58.3125 16.375 C58.3125 12.415 58.3125 8.455 58.3125 4.375 C61.3125 0.375 61.3125 0.375 63.1875 -0.5625 C66.48144189 -0.65938064 67.81616921 0.23992684 70.3125 2.375 C71.06269727 5.31757066 70.96433016 8.16717501 70.875 11.1875 C70.88595703 11.98220703 70.89691406 12.77691406 70.90820312 13.59570312 C70.84181961 18.94621477 69.93540133 22.20259336 66.3125 26.375 C62.97622364 28.53804723 60.19088989 28.63765181 56.26220703 28.66552734 C54.42977951 28.6846669 54.42977951 28.6846669 52.56033325 28.70419312 C50.58527298 28.70753159 50.58527298 28.70753159 48.5703125 28.7109375 C47.20034649 28.71736821 45.83038185 28.72409677 44.4604187 28.73110962 C41.59060483 28.74307331 38.72091126 28.74679141 35.85107422 28.74560547 C32.18353907 28.74540237 28.51677963 28.7726977 24.84942818 28.80714989 C22.02001441 28.82944839 19.19078642 28.83344212 16.36129379 28.83238602 C14.35499074 28.83587716 12.34874568 28.85752229 10.34255981 28.87948608 C-1.18407922 28.82172479 -1.18407922 28.82172479 -5.6875 24.375 C-8.44202514 20.32803196 -8.09114634 16.04825067 -8.125 11.3125 C-8.15787109 10.49716797 -8.19074219 9.68183594 -8.22460938 8.84179688 C-8.2450891 6.57599439 -8.19949387 4.58299154 -7.6875 2.375 C-4.8323415 -0.1634439 -3.75429456 -0.87309176 0 0 Z " fill="#FFFFFF" transform="translate(18.6875,56.625)"/>
<path d="M0 0 C1.65551758 1.05395508 1.65551758 1.05395508 3 3 C3.33079338 5.57817111 3.4883563 7.92920167 3.51171875 10.51171875 C3.53864555 11.60405571 3.53864555 11.60405571 3.56611633 12.71846008 C3.62024213 15.04141471 3.6541208 17.36416366 3.6875 19.6875 C3.72067125 21.26370051 3.75516073 22.83987388 3.79101562 24.41601562 C3.8759693 28.27719536 3.94276876 32.13831387 4 36 C4.89525391 35.02353516 4.89525391 35.02353516 5.80859375 34.02734375 C8 32 8 32 11.0625 31.5625 C14 32 14 32 15.875 33.125 C17.52064568 35.8677428 17.28973256 37.84616577 17 41 C15.53466797 43.24169922 15.53466797 43.24169922 13.4921875 45.3046875 C12.38230469 46.42617187 12.38230469 46.42617187 11.25 47.5703125 C10.46625 48.33085938 9.6825 49.09140625 8.875 49.875 C8.11445312 50.65875 7.35390625 51.4425 6.5703125 52.25 C5.82265625 52.98992187 5.075 53.72984375 4.3046875 54.4921875 C3.2835083 55.50321533 3.2835083 55.50321533 2.24169922 56.53466797 C-0.74947692 58.48991074 -2.48823972 58.51327486 -6 58 C-8.24169922 56.53466797 -8.24169922 56.53466797 -10.3046875 54.4921875 C-11.05234375 53.75226563 -11.8 53.01234375 -12.5703125 52.25 C-13.33085938 51.46625 -14.09140625 50.6825 -14.875 49.875 C-15.65875 49.11445312 -16.4425 48.35390625 -17.25 47.5703125 C-17.98992188 46.82265625 -18.72984375 46.075 -19.4921875 45.3046875 C-20.16620605 44.62390137 -20.84022461 43.94311523 -21.53466797 43.24169922 C-23.44060115 40.32595805 -23.34757215 38.41886738 -23 35 C-21.875 33.125 -21.875 33.125 -20 32 C-17.0625 31.5625 -17.0625 31.5625 -14 32 C-11.80859375 34.02734375 -11.80859375 34.02734375 -10 36 C-9.98541748 35.01604248 -9.97083496 34.03208496 -9.95581055 33.01831055 C-9.89783002 29.36706226 -9.82059815 25.71643089 -9.73754883 22.06567383 C-9.70429812 20.48569757 -9.67626654 18.90560248 -9.65356445 17.32543945 C-9.62001984 15.05368421 -9.56770773 12.78301797 -9.51171875 10.51171875 C-9.50213387 9.45219246 -9.50213387 9.45219246 -9.49235535 8.3712616 C-9.4058515 5.48494678 -9.32232399 3.46654158 -7.65551758 1.05395508 C-5.04198822 -0.60990073 -3.01251453 -0.37656432 0 0 Z " fill="#FFFFFF" transform="translate(53,12)"/>
</svg>
