<?xml version="1.0" encoding="UTF-8"?>
<svg version="1.1" xmlns="http://www.w3.org/2000/svg" width="1200" height="1200">
<path d="M0 0 C10.91570157 8.34027823 18.05973645 19.26500646 20.5 32.91015625 C21.2146738 39.98964746 21.03784195 47.1295 21.00170898 54.2355957 C21.00549824 56.36916459 21.01100326 58.502731 21.01808167 60.6362915 C21.03197684 66.39891469 21.02090704 72.1612373 21.00437045 77.92384362 C20.99045255 83.97683423 20.99698789 90.02980858 21.00050354 96.08280945 C21.00320097 106.24820763 20.98977239 116.41348742 20.96655273 126.57885742 C20.93996756 138.29804588 20.93819091 150.01703623 20.9499411 161.7362445 C20.96075738 173.04767576 20.95450027 184.35903601 20.94038582 195.67046165 C20.93465719 200.46629725 20.93468402 205.26208034 20.93945122 210.05791664 C20.94425808 215.71747308 20.93396707 221.37681538 20.91249657 227.03633118 C20.90697792 229.10175034 20.90641752 231.16719029 20.91144943 233.2326107 C20.97279481 262.04741725 14.10776607 287.14249857 -5.5 308.91015625 C-6.19738281 309.69003906 -6.89476562 310.46992187 -7.61328125 311.2734375 C-20.7775044 325.20777973 -38.86815997 334.79689758 -57.5 338.91015625 C-58.16461746 339.07677356 -58.82923492 339.24339087 -59.51399231 339.41505718 C-69.42644157 341.60041243 -79.49353056 341.19845049 -89.5859375 341.18481445 C-91.71747007 341.18916693 -93.84900108 341.19435185 -95.98052979 341.20030212 C-101.74491371 341.21364384 -107.50923188 341.21427632 -113.27362823 341.21173882 C-118.09468547 341.21066611 -122.91572957 341.21556 -127.73678398 341.22034425 C-139.1129442 341.23142213 -150.48907138 341.23188612 -161.86523438 341.22583008 C-173.58446797 341.21978722 -185.30358159 341.23211325 -197.02279472 341.25340015 C-207.10294292 341.27103366 -217.18305298 341.27701485 -227.26321602 341.2737624 C-233.27566926 341.27195265 -239.28803686 341.27455529 -245.30047607 341.28847694 C-250.95422324 341.30107958 -256.60778362 341.29908804 -262.26152802 341.28606606 C-264.33066624 341.28370628 -266.39981772 341.28641339 -268.46894073 341.29468918 C-286.63039079 341.36206584 -301.45677987 339.38919577 -315.17578125 326.359375 C-325.74062567 315.22633727 -329.88094849 302.76398337 -329.70703125 287.6015625 C-328.94021827 273.92914244 -322.99061277 262.28040691 -313.01171875 252.9453125 C-298.71617542 241.36214286 -284.75607832 240.46748066 -267.1574707 240.56958008 C-265.10661329 240.57042738 -263.05575496 240.5699492 -261.00489807 240.56825256 C-255.46432316 240.5673952 -249.92394486 240.584979 -244.38341546 240.60597444 C-238.58319116 240.62478449 -232.78296189 240.62649509 -226.98271179 240.63005066 C-216.0111682 240.63935842 -205.03971476 240.66395503 -194.06821078 240.69409913 C-181.5724383 240.72768266 -169.07666142 240.74413909 -156.58085501 240.75918543 C-130.88718678 240.7905057 -105.19359845 240.84324149 -79.5 240.91015625 C-79.50368717 239.85016324 -79.50737434 238.79017023 -79.51117325 237.69805622 C-79.60007954 211.87347693 -79.66575428 186.04891756 -79.70724869 160.22421741 C-79.72784984 147.73544173 -79.75592371 135.24676732 -79.80175781 122.75805664 C-79.84170041 111.86942417 -79.86745059 100.98086506 -79.87635398 90.09216136 C-79.88155612 84.3298148 -79.89373217 78.56767807 -79.92292023 72.80539894 C-79.95020656 67.37420711 -79.95841834 61.94331022 -79.95243073 56.51205635 C-79.95352507 54.52599227 -79.96139968 52.53991762 -79.9768219 50.55391312 C-80.10930084 32.60313757 -77.48355558 18.38493787 -64.8125 4.66015625 C-46.5991388 -12.46321616 -20.41290428 -13.97453186 0 0 Z " fill="#FFFFFF" transform="translate(1029.5,709.08984375)"/>
<path d="M0 0 C2.12356841 -0.00407103 4.2471347 -0.00941588 6.37069702 -0.01593018 C12.1106004 -0.02954963 17.85034111 -0.02432644 23.59024715 -0.01479292 C29.61788794 -0.00716446 35.64551537 -0.01425112 41.67315674 -0.01895142 C51.79742922 -0.02440138 61.92163595 -0.01723901 72.04589844 -0.00292969 C83.71791325 0.01337765 95.38977067 0.00811911 107.06178164 -0.0084089 C117.11231027 -0.02206651 127.16279178 -0.02392207 137.21332669 -0.0160929 C143.20300194 -0.01143755 149.19260348 -0.01073193 155.18227386 -0.02070236 C160.81964525 -0.0294315 166.45681588 -0.02324243 172.0941658 -0.00601959 C174.1515253 -0.00208555 176.20890198 -0.00313523 178.26625443 -0.00980759 C207.05463241 -0.09449355 232.13684081 6.80259072 253.87988281 26.38818359 C254.65976562 27.08556641 255.43964844 27.78294922 256.24316406 28.50146484 C270.1775063 41.66568799 279.76662414 59.75634356 283.87988281 78.38818359 C284.04631601 79.05210428 284.21274921 79.71602497 284.38422585 80.40006447 C286.57334364 90.33093464 286.17607427 100.42266945 286.17041016 110.53417969 C286.17640177 112.67231988 286.18320876 114.81045791 286.19076538 116.94859314 C286.20836547 122.73169971 286.21311815 128.51474702 286.21439695 134.29787779 C286.2158222 137.91642205 286.22009882 141.53495142 286.22539139 145.15349197 C286.24386995 157.79260458 286.25206449 170.43167511 286.25048828 183.07080078 C286.24928662 194.82865093 286.27039961 206.58631761 286.30197561 218.34412134 C286.32817058 228.46081951 286.33885426 238.57745786 286.33757746 248.69418967 C286.3370689 254.72686008 286.34269423 260.75936719 286.36393356 266.79200363 C286.38337085 272.46713624 286.38340278 278.14195063 286.3689003 283.8170948 C286.36681812 285.89184728 286.37147759 287.96661998 286.38362122 290.04133797 C286.48352019 308.30085968 284.09820001 322.80114525 271.06738281 336.70068359 C260.71419248 346.3993619 247.98330901 351.06292582 233.83374023 350.85864258 C219.63799336 350.21780893 207.30846147 343.83916633 197.65722656 333.53662109 C186.18595043 319.67024335 185.29243965 304.98973758 185.42578125 287.81860352 C185.42691145 285.76745119 185.4262725 283.71629726 185.42401123 281.66514587 C185.42286991 276.13289013 185.44628456 270.60098573 185.47430706 265.06881118 C185.49941825 259.27394532 185.50167035 253.4790702 185.50640869 247.68415833 C185.51880999 236.72681383 185.55159299 225.76963017 185.59180665 214.81235629 C185.63661311 202.33105747 185.65853369 189.84975071 185.67858839 177.36839139 C185.72032821 151.70823318 185.79062472 126.04821743 185.87988281 100.38818359 C184.8198898 100.39187077 183.75989679 100.39555794 182.66778278 100.39935684 C156.8432035 100.48826314 131.01864413 100.55393787 105.19394398 100.59543228 C92.70516829 100.61603343 80.21649388 100.64410731 67.7277832 100.68994141 C56.83915073 100.72988401 45.95059162 100.75563418 35.06188792 100.76453757 C29.29954136 100.76973972 23.53740463 100.78191576 17.7751255 100.81110382 C12.34393367 100.83839015 6.91303678 100.84660193 1.48178291 100.84061432 C-0.50428117 100.84170866 -2.49035581 100.84958327 -4.47636032 100.86500549 C-22.42713587 100.99748444 -36.64533557 98.37173918 -50.37011719 85.70068359 C-60.71942244 74.67134186 -64.8074194 61.75598402 -64.39746094 46.83349609 C-63.30272175 33.23405997 -57.62062875 21.75550456 -47.62792969 12.42333984 C-32.97646495 0.53328824 -18.02981043 -0.05822211 0 0 Z " fill="#FFFFFF" transform="translate(764.1201171875,149.61181640625)"/>
<path d="M0 0 C10.92604768 8.34818331 18.03533244 19.26063896 20.5 32.91015625 C21.19554814 39.73902959 21.00732982 46.62524016 20.95410156 53.47973633 C20.95297136 55.53088865 20.95361032 57.58204258 20.95587158 59.63319397 C20.9570129 65.16544971 20.93359825 70.69735412 20.90557575 76.22952867 C20.88046456 82.02439453 20.87821246 87.81926964 20.87347412 93.61418152 C20.86107282 104.57152601 20.82828982 115.52870968 20.78807616 126.48598355 C20.7432697 138.96728238 20.72134912 151.44858914 20.70129442 163.92994845 C20.6595546 189.59010666 20.58925809 215.25012242 20.5 240.91015625 C21.55576107 240.90739087 22.61152214 240.90462549 23.69927597 240.90177631 C49.41503151 240.83511086 75.13077581 240.78584727 100.84659958 240.75471973 C113.28269272 240.73926572 125.71872871 240.71820419 138.15478516 240.68383789 C148.99689595 240.6538907 159.83896534 240.63457059 170.68111634 240.62789077 C176.41935749 240.62398754 182.15748019 240.61484487 187.89568329 240.59296608 C193.30303574 240.57251692 198.71022158 240.56633946 204.11760902 240.57083321 C206.09602325 240.57001177 208.07444338 240.56409662 210.05282402 240.55253983 C227.91050179 240.45339075 242.65870199 242.34639743 256.3125 255.09765625 C266.84876868 266.37968623 271.19754313 279.16958644 270.77734375 294.46484375 C269.67341815 308.17839833 263.92909461 319.52987573 253.88671875 328.94140625 C243.40794918 337.58510488 232.16291624 341.06474481 218.73027039 341.05059814 C217.40547416 341.05505483 217.40547416 341.05505483 216.05391437 341.05960155 C213.09412015 341.06827356 210.13436646 341.06979557 207.17456055 341.07128906 C205.05202651 341.07591851 202.9294933 341.08094335 200.80696106 341.08633423 C195.0377721 341.09945316 189.26859477 341.1059029 183.49939322 341.11034489 C179.89057812 341.11327811 176.28176617 341.11738353 172.67295265 341.12184906 C161.36951229 341.13552637 150.06607918 341.14519031 138.76263112 341.14905095 C125.73888875 341.15352403 112.71525173 341.17103611 99.69154137 341.20005155 C89.61144158 341.22172437 79.53137129 341.23175831 69.45124847 341.23309207 C63.43797969 341.23413664 57.42480991 341.23996942 51.41156578 341.25791168 C45.74558187 341.27448797 40.07977032 341.27650177 34.41377068 341.26777267 C32.34512111 341.26700723 30.27646192 341.27127919 28.20783615 341.28123093 C-0.62081614 341.41167427 -25.72559904 334.5239965 -47.5 314.91015625 C-48.66982422 313.86408203 -48.66982422 313.86408203 -49.86328125 312.796875 C-63.79762348 299.63265185 -73.38674133 281.54199628 -77.5 262.91015625 C-77.7496498 261.91427522 -77.7496498 261.91427522 -78.00434303 260.89827538 C-80.19346082 250.9674052 -79.79619146 240.8756704 -79.79052734 230.76416016 C-79.79651896 228.62601997 -79.80332595 226.48788193 -79.81088257 224.3497467 C-79.82848265 218.56664013 -79.83323534 212.78359282 -79.83451414 207.00046206 C-79.83593939 203.38191779 -79.84021601 199.76338842 -79.84550858 196.14484787 C-79.86398714 183.50573526 -79.87218168 170.86666473 -79.87060547 158.22753906 C-79.8694038 146.46968891 -79.89051679 134.71202224 -79.9220928 122.95421851 C-79.94828777 112.83752033 -79.95897145 102.72088199 -79.95769465 92.60415018 C-79.95718609 86.57147977 -79.96281142 80.53897266 -79.98405075 74.50633621 C-80.00348804 68.8312036 -80.00351997 63.15638922 -79.98901749 57.48124504 C-79.9869353 55.40649256 -79.99159478 53.33171986 -80.0037384 51.25700188 C-80.10349084 33.02426448 -77.70254127 18.62213442 -64.8125 4.66015625 C-46.5991388 -12.46321616 -20.41290428 -13.97453186 0 0 Z " fill="#FFFFFF" transform="translate(229.5,709.08984375)"/>
<path d="M0 0 C2.13168007 -0.00435335 4.26335858 -0.00953857 6.39503479 -0.01548767 C12.15522743 -0.02881902 17.91535423 -0.0294631 23.67555928 -0.02692437 C28.49418137 -0.02585109 33.31279033 -0.03074693 38.13140959 -0.03552979 C49.50135346 -0.04660379 60.87126429 -0.04707367 72.24121094 -0.04101562 C83.95308092 -0.03497126 95.66483091 -0.0473035 107.37668043 -0.06858569 C117.45260254 -0.08621881 127.5284865 -0.09220051 137.60442346 -0.08894795 C143.61350837 -0.08713836 149.62250758 -0.08973942 155.63157845 -0.10366249 C161.28123503 -0.11626472 166.93070469 -0.11427398 172.58035851 -0.1012516 C174.64788502 -0.09889185 176.7154248 -0.10159885 178.7829361 -0.10987473 C196.93920041 -0.17728584 211.76161793 1.79970357 225.47631836 14.82543945 C236.04116278 25.95847719 240.1814856 38.42083108 240.00756836 53.58325195 C239.24096822 67.25187713 233.29414354 78.91378593 223.30834961 88.23950195 C208.87334082 99.95389382 194.20942062 100.71905691 176.4362793 100.61523438 C174.39512647 100.61438689 172.35397273 100.61486562 170.31282043 100.61656189 C164.80329489 100.61741852 159.29396745 100.59984673 153.78448772 100.57884002 C148.01496588 100.56001762 142.24543892 100.5583184 136.47589111 100.55476379 C125.56458768 100.54545964 114.65337501 100.52086795 103.74211144 100.49071532 C91.31402921 100.45712052 78.88594252 100.44067254 66.45782614 100.42562902 C40.90534625 100.39431692 15.35294678 100.34158821 -10.19946289 100.2746582 C-10.19577572 101.33465121 -10.19208855 102.39464422 -10.18828964 103.48675823 C-10.09938335 129.31133752 -10.03370861 155.13589689 -9.9922142 180.96059704 C-9.97161305 193.44937272 -9.94353918 205.93804714 -9.89770508 218.42675781 C-9.85776248 229.31539029 -9.8320123 240.20394939 -9.82310891 251.0926531 C-9.81790677 256.85499966 -9.80573072 262.61713638 -9.77654266 268.37941551 C-9.74925633 273.81060734 -9.74104455 279.24150423 -9.74703217 284.6727581 C-9.74593783 286.65882219 -9.73806321 288.64489683 -9.72264099 290.63090134 C-9.58995637 308.60954679 -12.20204869 322.92324972 -25.01196289 336.5871582 C-35.36515323 346.28583651 -48.0960367 350.94940043 -62.24560547 350.74511719 C-76.44135234 350.10428354 -88.77088424 343.72564094 -98.42211914 333.4230957 C-110.07477581 319.33746677 -110.78980691 304.38064097 -110.70117188 286.94921875 C-110.70496113 284.81564987 -110.71046615 282.68208345 -110.71754456 280.54852295 C-110.73143973 274.78589976 -110.72036993 269.02357716 -110.70383334 263.26097083 C-110.68991544 257.20798022 -110.69645078 251.15500587 -110.69996643 245.102005 C-110.70266386 234.93660682 -110.68923528 224.77132703 -110.66601562 214.60595703 C-110.63943045 202.88676857 -110.6376538 191.16777822 -110.64940399 179.44856995 C-110.66022027 168.13713869 -110.65396316 156.82577845 -110.63984871 145.5143528 C-110.63412008 140.7185172 -110.63414691 135.92273411 -110.63891411 131.12689781 C-110.64372097 125.46734138 -110.63342997 119.80799907 -110.61195946 114.14848328 C-110.60644081 112.08306411 -110.60588041 110.01762416 -110.61091232 107.95220375 C-110.67230936 79.11313014 -103.84728292 54.1132971 -84.19946289 32.2746582 C-83.56395508 31.56825195 -82.92844727 30.8618457 -82.27368164 30.1340332 C-59.97657374 6.68283069 -31.19012246 -0.04222005 0 0 Z " fill="#FFFFFF" transform="translate(260.199462890625,149.725341796875)"/>
</svg>
