<?xml version="1.0" encoding="UTF-8"?>
<svg version="1.1" xmlns="http://www.w3.org/2000/svg" width="100" height="100">
<path d="M0 0 C5.09835182 3.43182035 10.36103919 8.70811758 12.3125 14.5625 C12.456738 16.32941554 12.5330801 18.1024511 12.5625 19.875 C12.58828125 20.79925781 12.6140625 21.72351563 12.640625 22.67578125 C11.8065757 30.01342929 6.95285605 34.38428334 1.9375 39.3125 C1.2775 39.98410156 0.6175 40.65570313 -0.0625 41.34765625 C-4.22747765 45.4877436 -7.33028614 48.27418032 -13.37109375 48.79296875 C-14.27988281 48.77878906 -15.18867187 48.76460937 -16.125 48.75 C-17.56166016 48.73066406 -17.56166016 48.73066406 -19.02734375 48.7109375 C-21.6875 48.5625 -21.6875 48.5625 -25.1875 47.875 C-27.68475919 47.31491383 -27.68475919 47.31491383 -29.625 48.625 C-31.20561015 51.5072891 -30.31240157 53.3243737 -29.6875 56.5625 C-29.53410855 58.55932792 -29.43453385 60.56067423 -29.375 62.5625 C-29.31892578 64.0475 -29.31892578 64.0475 -29.26171875 65.5625 C-30.23487883 72.41926092 -35.91479822 77.12711488 -40.625 81.8125 C-41.23279297 82.43640625 -41.84058594 83.0603125 -42.46679688 83.703125 C-47.32307339 88.56464021 -51.02622731 90.8366938 -58.0625 90.9375 C-66.30427771 90.74968469 -70.517055 87.05325926 -76.20703125 81.44140625 C-79.3465574 77.45694167 -79.99830198 73.61318617 -80.0625 68.625 C-80.10503906 67.12646484 -80.10503906 67.12646484 -80.1484375 65.59765625 C-79.09887958 58.68658421 -73.45959913 54.0246983 -68.6875 49.3125 C-68.07132813 48.68859375 -67.45515625 48.0646875 -66.8203125 47.421875 C-66.21960938 46.82375 -65.61890625 46.225625 -65 45.609375 C-64.45988281 45.07151367 -63.91976562 44.53365234 -63.36328125 43.97949219 C-59.62620536 40.81952883 -56.6488388 40.30731587 -51.8125 40.375 C-50.75417969 40.38789062 -49.69585937 40.40078125 -48.60546875 40.4140625 C-45.6875 40.5625 -45.6875 40.5625 -42.125 41.25 C-39.69587075 41.8264576 -39.69587075 41.8264576 -37.97265625 40.46484375 C-36.38955113 38.55260582 -36.38955113 38.55260582 -36.9375 35.7421875 C-37.43412819 33.55391953 -37.93408331 31.36640373 -38.4375 29.1796875 C-38.83421181 23.43976357 -37.53450363 18.97623473 -34.01660156 14.37890625 C-32.02288287 12.20212157 -29.95383852 10.15637789 -27.8125 8.125 C-27.10480469 7.41923828 -26.39710937 6.71347656 -25.66796875 5.98632812 C-18.16140178 -1.33152626 -10.18268131 -3.96951983 0 0 Z M-19.6875 16.5625 C-20.38230469 17.25730469 -21.07710937 17.95210937 -21.79296875 18.66796875 C-24.45838945 21.4481769 -24.45838945 21.4481769 -26.6875 24.5625 C-26.46330097 26.76138994 -26.46330097 26.76138994 -25.6875 28.5625 C-25.171875 27.9025 -24.65625 27.2425 -24.125 26.5625 C-20.87142795 23.89290242 -18.78619574 24.17583059 -14.6875 24.5625 C-13.6875 25.5625 -13.6875 25.5625 -13.375 28.25 C-13.75820386 32.31196093 -15.2453483 34.35717589 -17.6875 37.5625 C-11.74857134 36.75966389 -8.84470443 33.63073702 -4.6875 29.5625 C-4.06617187 28.96566406 -3.44484375 28.36882813 -2.8046875 27.75390625 C-0.15648085 24.98868582 1.22141916 23.43687603 1.625 19.5625 C-0.206601 15.37598343 -2.86211726 12.10773497 -6.6875 9.5625 C-12.80185675 8.62330414 -15.65050184 12.52550184 -19.6875 16.5625 Z M-63.76171875 60.6328125 C-67.40595391 64.30214233 -67.40595391 64.30214233 -69.10546875 69.03515625 C-68.56133852 72.32536425 -67.36373813 73.55495389 -65 75.875 C-64.31550781 76.57238281 -63.63101563 77.26976563 -62.92578125 77.98828125 C-60.79331741 79.71379149 -60.79331741 79.71379149 -58.23046875 80.05078125 C-52.9445145 79.03581308 -49.37092137 74.24592137 -45.6875 70.5625 C-45.09582031 69.97082031 -44.50414063 69.37914063 -43.89453125 68.76953125 C-42.32689976 67.13694201 -42.32689976 67.13694201 -40.6875 64.5625 C-40.72125833 62.24078408 -40.72125833 62.24078408 -41.6875 60.5625 C-42.203125 61.2225 -42.71875 61.8825 -43.25 62.5625 C-46.50357205 65.23209758 -48.58880426 64.94916941 -52.6875 64.5625 C-53.6875 63.5625 -53.6875 63.5625 -54 60.3125 C-53.64378972 56.03797661 -52.62011437 54.58675856 -49.6875 51.5625 C-56.1792579 51.5625 -59.35176745 56.23116619 -63.76171875 60.6328125 Z " fill="#FFFFFF" transform="translate(83.6875,5.4375)"/>
</svg>
