<?xml version="1.0" encoding="UTF-8"?>
<svg version="1.1" xmlns="http://www.w3.org/2000/svg" width="100" height="100">
<path d="M0 0 C27.72 0 55.44 0 84 0 C84.04125 8.86875 84.0825 17.7375 84.125 26.875 C84.14320801 29.67597168 84.16141602 32.47694336 84.18017578 35.36279297 C84.18601471 37.57258919 84.19111168 39.78238756 84.1953125 41.9921875 C84.20554443 43.1479126 84.21577637 44.3036377 84.22631836 45.49438477 C84.22668091 47.1385437 84.22668091 47.1385437 84.22705078 48.81591797 C84.231492 49.77078094 84.23593323 50.72564392 84.24050903 51.70944214 C84 54 84 54 82 56 C79.45111876 56.19831516 77.01089779 56.27278262 74.4609375 56.25878906 C73.68357239 56.2622937 72.90620728 56.26579834 72.10528564 56.26940918 C69.52843368 56.27823206 66.9518549 56.27237545 64.375 56.265625 C62.58902941 56.26697149 60.80305918 56.26891189 59.01708984 56.27142334 C55.27112341 56.27437535 51.52525225 56.27007449 47.77929688 56.26074219 C42.97037167 56.24934759 38.16166969 56.25590666 33.35275269 56.26788712 C29.66396392 56.27510364 25.97522833 56.27281875 22.28643799 56.26763153 C20.51295953 56.26629446 18.73947629 56.26794476 16.96600342 56.27259064 C14.49022575 56.27765249 12.0148129 56.26995063 9.5390625 56.25878906 C8.80133606 56.26283752 8.06360962 56.26688599 7.30352783 56.27105713 C2.22852878 56.22852878 2.22852878 56.22852878 0 54 C-0.24050903 51.70944214 -0.24050903 51.70944214 -0.22705078 48.81591797 C-0.22680908 47.71981201 -0.22656738 46.62370605 -0.22631836 45.49438477 C-0.21608643 44.33865967 -0.20585449 43.18293457 -0.1953125 41.9921875 C-0.19329834 40.93265869 -0.19128418 39.87312988 -0.18920898 38.78149414 C-0.17872206 34.8126189 -0.15079963 30.84380523 -0.125 26.875 C-0.08375 18.00625 -0.0425 9.1375 0 0 Z M41 11 C39.63467451 12.13701597 39.63467451 12.13701597 39.90234375 15.16015625 C39.91394531 16.44792969 39.92554688 17.73570313 39.9375 19.0625 C39.958125 21.351875 39.97875 23.64125 40 26 C35.38 26 30.76 26 26 26 C26 27.32 26 28.64 26 30 C30.62 30 35.24 30 40 30 C40 34.62 40 39.24 40 44 C41.32 44 42.64 44 44 44 C44 39.38 44 34.76 44 30 C48.62 30 53.24 30 58 30 C58 28.68 58 27.36 58 26 C53.38 26 48.76 26 44 26 C44 21.38 44 16.76 44 12 C43.01 11.67 42.02 11.34 41 11 Z " fill="#FFFFFF" transform="translate(8,30)"/>
<path d="M0 0 C1.10658966 0.00607269 1.10658966 0.00607269 2.23553467 0.01226807 C3.01289978 0.00876343 3.79026489 0.00525879 4.59118652 0.00164795 C7.16803849 -0.00717493 9.74461727 -0.00131833 12.32147217 0.00543213 C14.10744276 0.00408564 15.89341299 0.00214524 17.67938232 -0.00036621 C21.42534876 -0.00331823 25.17121992 0.00098264 28.91717529 0.01031494 C33.7261005 0.02170953 38.53480248 0.01515047 43.34371948 0.00317001 C47.03250825 -0.00404651 50.72124383 -0.00176162 54.41003418 0.0034256 C56.18351264 0.00476267 57.95699587 0.00311237 59.73046875 -0.00153351 C62.20624642 -0.00659536 64.68165927 0.0011065 67.15740967 0.01226807 C67.89513611 0.0082196 68.63286255 0.00417114 69.39294434 0 C74.46794339 0.04252835 74.46794339 0.04252835 76.69647217 2.27105713 C76.69647217 5.57105713 76.69647217 8.87105713 76.69647217 12.27105713 C48.97647217 12.27105713 21.25647217 12.27105713 -7.30352783 12.27105713 C-7.30352783 0.06120336 -7.30352783 0.06120336 0 0 Z M-0.30352783 5.27105713 C-0.30352783 5.93105713 -0.30352783 6.59105713 -0.30352783 7.27105713 C0.35647217 7.27105713 1.01647217 7.27105713 1.69647217 7.27105713 C1.69647217 6.61105713 1.69647217 5.95105713 1.69647217 5.27105713 C1.03647217 5.27105713 0.37647217 5.27105713 -0.30352783 5.27105713 Z M5.69647217 5.27105713 C5.69647217 5.93105713 5.69647217 6.59105713 5.69647217 7.27105713 C6.35647217 7.27105713 7.01647217 7.27105713 7.69647217 7.27105713 C7.69647217 6.61105713 7.69647217 5.95105713 7.69647217 5.27105713 C7.03647217 5.27105713 6.37647217 5.27105713 5.69647217 5.27105713 Z M11.69647217 5.27105713 C11.69647217 5.93105713 11.69647217 6.59105713 11.69647217 7.27105713 C12.35647217 7.27105713 13.01647217 7.27105713 13.69647217 7.27105713 C13.69647217 6.61105713 13.69647217 5.95105713 13.69647217 5.27105713 C13.03647217 5.27105713 12.37647217 5.27105713 11.69647217 5.27105713 Z " fill="#FFFFFF" transform="translate(15.30352783203125,13.72894287109375)"/>
</svg>
