<?xml version="1.0" encoding="UTF-8"?>
<svg version="1.1" xmlns="http://www.w3.org/2000/svg" width="1200" height="1200">
<path d="M0 0 C1.03321381 -0.00571014 2.06642761 -0.01142029 3.13095093 -0.01730347 C4.25885544 -0.01842133 5.38675995 -0.01953918 6.54884338 -0.02069092 C8.33720612 -0.02813828 8.33720612 -0.02813828 10.16169739 -0.03573608 C13.4282268 -0.04783089 16.69472045 -0.05529885 19.96126819 -0.05974674 C22.00293995 -0.06268134 24.04460615 -0.06678681 26.0862751 -0.07125092 C32.47695115 -0.084916 38.86761442 -0.09458835 45.25830406 -0.09845281 C52.63083062 -0.10293586 60.00317199 -0.1204992 67.37564224 -0.1494534 C73.07851778 -0.17107212 78.7813412 -0.18115713 84.48425728 -0.18249393 C87.88877208 -0.18354152 91.29311256 -0.18943986 94.69758415 -0.20731354 C98.49450177 -0.22432956 102.29096582 -0.22250459 106.08790588 -0.21600342 C107.21378616 -0.2252182 108.33966644 -0.23443298 109.49966431 -0.243927 C110.53569794 -0.23835785 111.57173157 -0.2327887 112.63916016 -0.22705078 C113.53640021 -0.22851734 114.43364027 -0.2299839 115.35806942 -0.2314949 C118.45891212 0.22526406 120.37323629 1.28944592 122.8830719 3.14044189 C122.8830719 3.80044189 122.8830719 4.46044189 122.8830719 5.14044189 C124.04093201 5.12473145 124.04093201 5.12473145 125.22218323 5.10870361 C128.71327978 5.06717736 132.20432439 5.04112632 135.6955719 5.01544189 C136.91051331 4.99868408 138.12545471 4.98192627 139.37721252 4.96466064 C140.54059143 4.95821533 141.70397034 4.95177002 142.90260315 4.94512939 C144.51292419 4.92941895 144.51292419 4.92941895 146.15577698 4.91339111 C148.8830719 5.14044189 148.8830719 5.14044189 151.8830719 7.14044189 C151.8830719 8.13044189 151.8830719 9.12044189 151.8830719 10.14044189 C157.8230719 10.14044189 163.7630719 10.14044189 169.8830719 10.14044189 C170.2130719 11.46044189 170.5430719 12.78044189 170.8830719 14.14044189 C172.32940002 14.12303955 172.32940002 14.12303955 173.8049469 14.10528564 C175.06822815 14.09626221 176.3315094 14.08723877 177.6330719 14.07794189 C178.88604065 14.06634033 180.1390094 14.05473877 181.4299469 14.04278564 C184.16843691 14.12023163 186.30187483 14.31263374 188.8830719 15.14044189 C189.2130719 16.46044189 189.5430719 17.78044189 189.8830719 19.14044189 C191.14764221 19.10563721 191.14764221 19.10563721 192.4377594 19.07012939 C194.08131409 19.04305908 194.08131409 19.04305908 195.7580719 19.01544189 C196.84861877 18.99223877 197.93916565 18.96903564 199.0627594 18.94512939 C201.8830719 19.14044189 201.8830719 19.14044189 203.8830719 21.14044189 C203.8830719 22.13044189 203.8830719 23.12044189 203.8830719 24.14044189 C208.1730719 24.14044189 212.4630719 24.14044189 216.8830719 24.14044189 C217.2130719 25.46044189 217.5430719 26.78044189 217.8830719 28.14044189 C219.4299469 28.07856689 219.4299469 28.07856689 221.0080719 28.01544189 C224.77983315 28.13711161 227.43217435 28.6614858 230.8830719 30.14044189 C231.2130719 30.80044189 231.5430719 31.46044189 231.8830719 32.14044189 C233.77840531 32.60567252 233.77840531 32.60567252 235.9455719 32.76544189 C237.2449469 32.88919189 238.5443219 33.01294189 239.8830719 33.14044189 C240.2130719 34.79044189 240.5430719 36.44044189 240.8830719 38.14044189 C243.8530719 38.14044189 246.8230719 38.14044189 249.8830719 38.14044189 C250.2130719 39.46044189 250.5430719 40.78044189 250.8830719 42.14044189 C253.8530719 42.47044189 256.8230719 42.80044189 259.8830719 43.14044189 C259.8830719 44.46044189 259.8830719 45.78044189 259.8830719 47.14044189 C262.8530719 47.14044189 265.8230719 47.14044189 268.8830719 47.14044189 C269.2130719 48.46044189 269.5430719 49.78044189 269.8830719 51.14044189 C273.8430719 51.63544189 273.8430719 51.63544189 277.8830719 52.14044189 C278.2130719 53.79044189 278.5430719 55.44044189 278.8830719 57.14044189 C281.8530719 57.14044189 284.8230719 57.14044189 287.8830719 57.14044189 C287.8830719 58.46044189 287.8830719 59.78044189 287.8830719 61.14044189 C290.8530719 61.47044189 293.8230719 61.80044189 296.8830719 62.14044189 C296.8830719 63.46044189 296.8830719 64.78044189 296.8830719 66.14044189 C298.5330719 66.14044189 300.1830719 66.14044189 301.8830719 66.14044189 C301.8830719 67.79044189 301.8830719 69.44044189 301.8830719 71.14044189 C304.8530719 71.14044189 307.8230719 71.14044189 310.8830719 71.14044189 C311.2130719 72.46044189 311.5430719 73.78044189 311.8830719 75.14044189 C313.2030719 75.47044189 314.5230719 75.80044189 315.8830719 76.14044189 C315.8830719 77.46044189 315.8830719 78.78044189 315.8830719 80.14044189 C317.1824469 80.11981689 318.4818219 80.09919189 319.8205719 80.07794189 C321.17472823 80.05644735 322.53063273 80.06895991 323.8830719 80.14044189 C324.2130719 80.47044189 324.5430719 80.80044189 324.8830719 81.14044189 C325.2130719 77.84044189 325.5430719 74.54044189 325.8830719 71.14044189 C327.5330719 71.14044189 329.1830719 71.14044189 330.8830719 71.14044189 C330.8830719 64.87044189 330.8830719 58.60044189 330.8830719 52.14044189 C332.2030719 52.14044189 333.5230719 52.14044189 334.8830719 52.14044189 C335.2130719 50.49044189 335.5430719 48.84044189 335.8830719 47.14044189 C337.2030719 47.14044189 338.5230719 47.14044189 339.8830719 47.14044189 C339.8830719 44.50044189 339.8830719 41.86044189 339.8830719 39.14044189 C341.5330719 38.81044189 343.1830719 38.48044189 344.8830719 38.14044189 C344.8830719 36.82044189 344.8830719 35.50044189 344.8830719 34.14044189 C347.83971709 32.6621193 350.62536927 33.08011407 353.8830719 33.14044189 C353.8830719 31.82044189 353.8830719 30.50044189 353.8830719 29.14044189 C357.3563237 27.98269129 360.24374637 28.07177538 363.8830719 28.14044189 C364.2130719 26.82044189 364.5430719 25.50044189 364.8830719 24.14044189 C378.0830719 24.14044189 391.2830719 24.14044189 404.8830719 24.14044189 C404.8830719 25.46044189 404.8830719 26.78044189 404.8830719 28.14044189 C408.1830719 28.47044189 411.4830719 28.80044189 414.8830719 29.14044189 C414.8830719 30.46044189 414.8830719 31.78044189 414.8830719 33.14044189 C416.2030719 33.14044189 417.5230719 33.14044189 418.8830719 33.14044189 C419.2130719 34.79044189 419.5430719 36.44044189 419.8830719 38.14044189 C421.1824469 38.11981689 422.4818219 38.09919189 423.8205719 38.07794189 C425.17472823 38.05644735 426.53063273 38.06895991 427.8830719 38.14044189 C428.8830719 39.14044189 428.8830719 39.14044189 428.98072815 40.98809814 C428.94817607 43.03887939 428.91562398 45.08966064 428.8830719 47.14044189 C430.2030719 47.14044189 431.5230719 47.14044189 432.8830719 47.14044189 C433.2130719 48.79044189 433.5430719 50.44044189 433.8830719 52.14044189 C435.2030719 52.47044189 436.5230719 52.80044189 437.8830719 53.14044189 C437.8830719 119.14044189 437.8830719 185.14044189 437.8830719 253.14044189 C436.5630719 253.14044189 435.2430719 253.14044189 433.8830719 253.14044189 C433.9449469 254.78012939 433.9449469 254.78012939 434.0080719 256.45294189 C433.8830719 260.14044189 433.8830719 260.14044189 431.8830719 263.14044189 C430.8930719 263.14044189 429.9030719 263.14044189 428.8830719 263.14044189 C428.8830719 264.46044189 428.8830719 265.78044189 428.8830719 267.14044189 C427.2330719 267.14044189 425.5830719 267.14044189 423.8830719 267.14044189 C423.8830719 268.79044189 423.8830719 270.44044189 423.8830719 272.14044189 C422.5630719 272.14044189 421.2430719 272.14044189 419.8830719 272.14044189 C419.5530719 273.79044189 419.2230719 275.44044189 418.8830719 277.14044189 C417.5630719 277.14044189 416.2430719 277.14044189 414.8830719 277.14044189 C414.5530719 278.46044189 414.2230719 279.78044189 413.8830719 281.14044189 C409.5930719 281.47044189 405.3030719 281.80044189 400.8830719 282.14044189 C400.5530719 283.46044189 400.2230719 284.78044189 399.8830719 286.14044189 C337.1830719 286.14044189 274.4830719 286.14044189 209.8830719 286.14044189 C209.5530719 284.49044189 209.2230719 282.84044189 208.8830719 281.14044189 C205.9130719 281.14044189 202.9430719 281.14044189 199.8830719 281.14044189 C199.5530719 279.82044189 199.2230719 278.50044189 198.8830719 277.14044189 C197.5630719 276.81044189 196.2430719 276.48044189 194.8830719 276.14044189 C194.8830719 274.82044189 194.8830719 273.50044189 194.8830719 272.14044189 C193.2330719 272.14044189 191.5830719 272.14044189 189.8830719 272.14044189 C189.8830719 270.49044189 189.8830719 268.84044189 189.8830719 267.14044189 C188.5630719 267.14044189 187.2430719 267.14044189 185.8830719 267.14044189 C185.5530719 265.82044189 185.2230719 264.50044189 184.8830719 263.14044189 C183.5630719 262.81044189 182.2430719 262.48044189 180.8830719 262.14044189 C180.8830719 257.85044189 180.8830719 253.56044189 180.8830719 249.14044189 C179.2330719 248.81044189 177.5830719 248.48044189 175.8830719 248.14044189 C175.8830719 237.58044189 175.8830719 227.02044189 175.8830719 216.14044189 C177.5330719 216.14044189 179.1830719 216.14044189 180.8830719 216.14044189 C180.8830719 211.52044189 180.8830719 206.90044189 180.8830719 202.14044189 C182.2030719 202.14044189 183.5230719 202.14044189 184.8830719 202.14044189 C184.8830719 199.50044189 184.8830719 196.86044189 184.8830719 194.14044189 C186.5330719 193.81044189 188.1830719 193.48044189 189.8830719 193.14044189 C190.2130719 191.49044189 190.5430719 189.84044189 190.8830719 188.14044189 C192.2030719 188.14044189 193.5230719 188.14044189 194.8830719 188.14044189 C195.2130719 186.49044189 195.5430719 184.84044189 195.8830719 183.14044189 C197.2030719 183.14044189 198.5230719 183.14044189 199.8830719 183.14044189 C199.8830719 181.82044189 199.8830719 180.50044189 199.8830719 179.14044189 C204.1730719 178.48044189 208.4630719 177.82044189 212.8830719 177.14044189 C213.2130719 176.15044189 213.5430719 175.16044189 213.8830719 174.14044189 C224.7730719 173.81044189 235.6630719 173.48044189 246.8830719 173.14044189 C246.5530719 171.82044189 246.2230719 170.50044189 245.8830719 169.14044189 C244.5630719 169.14044189 243.2430719 169.14044189 241.8830719 169.14044189 C241.8830719 167.49044189 241.8830719 165.84044189 241.8830719 164.14044189 C238.9130719 164.14044189 235.9430719 164.14044189 232.8830719 164.14044189 C232.5530719 162.82044189 232.2230719 161.50044189 231.8830719 160.14044189 C229.2430719 159.81044189 226.6030719 159.48044189 223.8830719 159.14044189 C223.5530719 157.82044189 223.2230719 156.50044189 222.8830719 155.14044189 C220.2430719 155.14044189 217.6030719 155.14044189 214.8830719 155.14044189 C214.5530719 153.49044189 214.2230719 151.84044189 213.8830719 150.14044189 C210.9130719 150.14044189 207.9430719 150.14044189 204.8830719 150.14044189 C204.5530719 148.82044189 204.2230719 147.50044189 203.8830719 146.14044189 C201.2430719 145.81044189 198.6030719 145.48044189 195.8830719 145.14044189 C195.5530719 143.82044189 195.2230719 142.50044189 194.8830719 141.14044189 C193.7693219 141.16106689 192.6555719 141.18169189 191.5080719 141.20294189 C187.8830719 141.14044189 187.8830719 141.14044189 185.8830719 140.14044189 C185.5530719 139.15044189 185.2230719 138.16044189 184.8830719 137.14044189 C182.2430719 136.81044189 179.6030719 136.48044189 176.8830719 136.14044189 C176.5530719 134.49044189 176.2230719 132.84044189 175.8830719 131.14044189 C171.5930719 131.14044189 167.3030719 131.14044189 162.8830719 131.14044189 C162.5530719 129.82044189 162.2230719 128.50044189 161.8830719 127.14044189 C160.20277893 127.17524658 160.20277893 127.17524658 158.48854065 127.21075439 C157.01589106 127.22951426 155.54323427 127.24771423 154.0705719 127.26544189 C153.33258362 127.28219971 152.59459534 127.29895752 151.83424377 127.31622314 C147.97060764 127.35118818 146.17403522 127.33441744 142.8830719 125.14044189 C142.8830719 124.15044189 142.8830719 123.16044189 142.8830719 122.14044189 C137.2730719 122.14044189 131.6630719 122.14044189 125.8830719 122.14044189 C125.2230719 120.82044189 124.5630719 119.50044189 123.8830719 118.14044189 C112.9930719 117.64544189 112.9930719 117.64544189 101.8830719 117.14044189 C101.5530719 115.82044189 101.2230719 114.50044189 100.8830719 113.14044189 C56.8280719 113.63544189 56.8280719 113.63544189 11.8830719 114.14044189 C11.5530719 115.13044189 11.2230719 116.12044189 10.8830719 117.14044189 C1.9730719 117.14044189 -6.9369281 117.14044189 -16.1169281 117.14044189 C-16.4469281 118.79044189 -16.7769281 120.44044189 -17.1169281 122.14044189 C-23.0569281 122.14044189 -28.9969281 122.14044189 -35.1169281 122.14044189 C-35.4469281 123.79044189 -35.7769281 125.44044189 -36.1169281 127.14044189 C-40.4069281 127.14044189 -44.6969281 127.14044189 -49.1169281 127.14044189 C-49.4469281 128.46044189 -49.7769281 129.78044189 -50.1169281 131.14044189 C-51.38149841 131.17911377 -51.38149841 131.17911377 -52.6716156 131.21856689 C-53.76731873 131.27528564 -54.86302185 131.33200439 -55.9919281 131.39044189 C-57.08247498 131.43684814 -58.17302185 131.48325439 -59.2966156 131.53106689 C-60.22731873 131.73216064 -61.15802185 131.93325439 -62.1169281 132.14044189 C-62.7769281 133.46044189 -63.4369281 134.78044189 -64.1169281 136.14044189 C-68.4069281 136.14044189 -72.6969281 136.14044189 -77.1169281 136.14044189 C-77.4469281 137.79044189 -77.7769281 139.44044189 -78.1169281 141.14044189 C-81.0869281 141.14044189 -84.0569281 141.14044189 -87.1169281 141.14044189 C-87.1169281 142.46044189 -87.1169281 143.78044189 -87.1169281 145.14044189 C-90.0869281 145.47044189 -93.0569281 145.80044189 -96.1169281 146.14044189 C-96.1169281 147.46044189 -96.1169281 148.78044189 -96.1169281 150.14044189 C-99.4169281 150.14044189 -102.7169281 150.14044189 -106.1169281 150.14044189 C-106.1169281 151.79044189 -106.1169281 153.44044189 -106.1169281 155.14044189 C-109.0869281 155.14044189 -112.0569281 155.14044189 -115.1169281 155.14044189 C-115.4469281 156.79044189 -115.7769281 158.44044189 -116.1169281 160.14044189 C-118.7569281 160.14044189 -121.3969281 160.14044189 -124.1169281 160.14044189 C-124.1169281 161.46044189 -124.1169281 162.78044189 -124.1169281 164.14044189 C-125.7669281 164.14044189 -127.4169281 164.14044189 -129.1169281 164.14044189 C-129.4469281 165.79044189 -129.7769281 167.44044189 -130.1169281 169.14044189 C-132.7569281 169.14044189 -135.3969281 169.14044189 -138.1169281 169.14044189 C-138.4469281 170.79044189 -138.7769281 172.44044189 -139.1169281 174.14044189 C-140.4369281 174.14044189 -141.7569281 174.14044189 -143.1169281 174.14044189 C-143.1169281 175.46044189 -143.1169281 176.78044189 -143.1169281 178.14044189 C-144.7669281 178.14044189 -146.4169281 178.14044189 -148.1169281 178.14044189 C-148.4469281 179.79044189 -148.7769281 181.44044189 -149.1169281 183.14044189 C-151.7569281 183.14044189 -154.3969281 183.14044189 -157.1169281 183.14044189 C-157.4469281 184.79044189 -157.7769281 186.44044189 -158.1169281 188.14044189 C-159.4369281 188.14044189 -160.7569281 188.14044189 -162.1169281 188.14044189 C-162.1169281 189.46044189 -162.1169281 190.78044189 -162.1169281 192.14044189 C-163.4369281 192.14044189 -164.7569281 192.14044189 -166.1169281 192.14044189 C-166.4469281 193.79044189 -166.7769281 195.44044189 -167.1169281 197.14044189 C-168.4369281 197.14044189 -169.7569281 197.14044189 -171.1169281 197.14044189 C-171.4469281 198.79044189 -171.7769281 200.44044189 -172.1169281 202.14044189 C-173.4369281 202.14044189 -174.7569281 202.14044189 -176.1169281 202.14044189 C-176.4469281 203.46044189 -176.7769281 204.78044189 -177.1169281 206.14044189 C-179.7569281 206.14044189 -182.3969281 206.14044189 -185.1169281 206.14044189 C-185.1169281 207.79044189 -185.1169281 209.44044189 -185.1169281 211.14044189 C-186.7669281 211.14044189 -188.4169281 211.14044189 -190.1169281 211.14044189 C-190.1169281 212.79044189 -190.1169281 214.44044189 -190.1169281 216.14044189 C-191.7669281 216.14044189 -193.4169281 216.14044189 -195.1169281 216.14044189 C-195.1169281 218.78044189 -195.1169281 221.42044189 -195.1169281 224.14044189 C-196.4369281 224.47044189 -197.7569281 224.80044189 -199.1169281 225.14044189 C-199.4469281 226.79044189 -199.7769281 228.44044189 -200.1169281 230.14044189 C-201.4369281 230.14044189 -202.7569281 230.14044189 -204.1169281 230.14044189 C-204.1169281 231.46044189 -204.1169281 232.78044189 -204.1169281 234.14044189 C-205.7669281 234.47044189 -207.4169281 234.80044189 -209.1169281 235.14044189 C-209.1169281 236.46044189 -209.1169281 237.78044189 -209.1169281 239.14044189 C-210.4369281 239.14044189 -211.7569281 239.14044189 -213.1169281 239.14044189 C-213.4469281 240.79044189 -213.7769281 242.44044189 -214.1169281 244.14044189 C-215.4369281 244.14044189 -216.7569281 244.14044189 -218.1169281 244.14044189 C-218.1169281 246.78044189 -218.1169281 249.42044189 -218.1169281 252.14044189 C-219.7669281 252.47044189 -221.4169281 252.80044189 -223.1169281 253.14044189 C-223.1169281 254.79044189 -223.1169281 256.44044189 -223.1169281 258.14044189 C-224.4369281 258.14044189 -225.7569281 258.14044189 -227.1169281 258.14044189 C-227.4469281 259.79044189 -227.7769281 261.44044189 -228.1169281 263.14044189 C-229.4369281 263.14044189 -230.7569281 263.14044189 -232.1169281 263.14044189 C-232.1169281 265.78044189 -232.1169281 268.42044189 -232.1169281 271.14044189 C-233.7669281 271.47044189 -235.4169281 271.80044189 -237.1169281 272.14044189 C-237.1169281 274.78044189 -237.1169281 277.42044189 -237.1169281 280.14044189 C-238.4369281 280.47044189 -239.7569281 280.80044189 -241.1169281 281.14044189 C-241.4469281 282.79044189 -241.7769281 284.44044189 -242.1169281 286.14044189 C-243.4369281 286.14044189 -244.7569281 286.14044189 -246.1169281 286.14044189 C-246.1169281 289.11044189 -246.1169281 292.08044189 -246.1169281 295.14044189 C-247.7669281 295.14044189 -249.4169281 295.14044189 -251.1169281 295.14044189 C-251.1169281 298.11044189 -251.1169281 301.08044189 -251.1169281 304.14044189 C-252.4369281 304.47044189 -253.7569281 304.80044189 -255.1169281 305.14044189 C-255.4469281 308.11044189 -255.7769281 311.08044189 -256.1169281 314.14044189 C-257.4369281 314.14044189 -258.7569281 314.14044189 -260.1169281 314.14044189 C-260.1169281 317.11044189 -260.1169281 320.08044189 -260.1169281 323.14044189 C-261.7669281 323.47044189 -263.4169281 323.80044189 -265.1169281 324.14044189 C-265.1169281 328.43044189 -265.1169281 332.72044189 -265.1169281 337.14044189 C-266.4369281 337.47044189 -267.7569281 337.80044189 -269.1169281 338.14044189 C-269.4469281 342.43044189 -269.7769281 346.72044189 -270.1169281 351.14044189 C-271.4369281 351.47044189 -272.7569281 351.80044189 -274.1169281 352.14044189 C-274.09372498 352.89969971 -274.07052185 353.65895752 -274.0466156 354.44122314 C-274.02856873 355.43509033 -274.01052185 356.42895752 -273.9919281 357.45294189 C-273.96872498 358.43907471 -273.94552185 359.42520752 -273.9216156 360.44122314 C-274.1169281 363.14044189 -274.1169281 363.14044189 -276.1169281 366.14044189 C-277.1069281 366.14044189 -278.0969281 366.14044189 -279.1169281 366.14044189 C-279.1169281 371.75044189 -279.1169281 377.36044189 -279.1169281 383.14044189 C-280.7669281 383.47044189 -282.4169281 383.80044189 -284.1169281 384.14044189 C-284.1169281 393.38044189 -284.1169281 402.62044189 -284.1169281 412.14044189 C-285.1069281 412.47044189 -286.0969281 412.80044189 -287.1169281 413.14044189 C-287.4469281 442.51044189 -287.7769281 471.88044189 -288.1169281 502.14044189 C-286.7969281 502.14044189 -285.4769281 502.14044189 -284.1169281 502.14044189 C-284.1169281 511.38044189 -284.1169281 520.62044189 -284.1169281 530.14044189 C-282.4669281 530.47044189 -280.8169281 530.80044189 -279.1169281 531.14044189 C-279.1169281 537.08044189 -279.1169281 543.02044189 -279.1169281 549.14044189 C-277.4669281 549.47044189 -275.8169281 549.80044189 -274.1169281 550.14044189 C-274.1169281 554.43044189 -274.1169281 558.72044189 -274.1169281 563.14044189 C-272.7969281 563.14044189 -271.4769281 563.14044189 -270.1169281 563.14044189 C-269.7869281 567.76044189 -269.4569281 572.38044189 -269.1169281 577.14044189 C-267.7969281 577.47044189 -266.4769281 577.80044189 -265.1169281 578.14044189 C-265.1169281 582.43044189 -265.1169281 586.72044189 -265.1169281 591.14044189 C-263.4669281 591.47044189 -261.8169281 591.80044189 -260.1169281 592.14044189 C-260.1169281 594.78044189 -260.1169281 597.42044189 -260.1169281 600.14044189 C-258.7969281 600.47044189 -257.4769281 600.80044189 -256.1169281 601.14044189 C-255.7869281 604.11044189 -255.4569281 607.08044189 -255.1169281 610.14044189 C-253.7969281 610.14044189 -252.4769281 610.14044189 -251.1169281 610.14044189 C-251.1169281 613.11044189 -251.1169281 616.08044189 -251.1169281 619.14044189 C-249.4669281 619.47044189 -247.8169281 619.80044189 -246.1169281 620.14044189 C-246.1169281 622.78044189 -246.1169281 625.42044189 -246.1169281 628.14044189 C-244.4669281 628.80044189 -242.8169281 629.46044189 -241.1169281 630.14044189 C-241.1169281 631.13044189 -241.1169281 632.12044189 -241.1169281 633.14044189 C-239.7969281 633.47044189 -238.4769281 633.80044189 -237.1169281 634.14044189 C-237.1169281 637.11044189 -237.1169281 640.08044189 -237.1169281 643.14044189 C-235.4669281 643.14044189 -233.8169281 643.14044189 -232.1169281 643.14044189 C-232.1169281 646.11044189 -232.1169281 649.08044189 -232.1169281 652.14044189 C-230.4669281 652.47044189 -228.8169281 652.80044189 -227.1169281 653.14044189 C-227.1169281 654.46044189 -227.1169281 655.78044189 -227.1169281 657.14044189 C-225.7969281 657.14044189 -224.4769281 657.14044189 -223.1169281 657.14044189 C-223.1169281 658.46044189 -223.1169281 659.78044189 -223.1169281 661.14044189 C-221.4669281 661.80044189 -219.8169281 662.46044189 -218.1169281 663.14044189 C-218.1169281 665.78044189 -218.1169281 668.42044189 -218.1169281 671.14044189 C-216.4669281 671.14044189 -214.8169281 671.14044189 -213.1169281 671.14044189 C-213.1169281 672.46044189 -213.1169281 673.78044189 -213.1169281 675.14044189 C-211.7969281 675.47044189 -210.4769281 675.80044189 -209.1169281 676.14044189 C-209.1169281 677.46044189 -209.1169281 678.78044189 -209.1169281 680.14044189 C-207.4669281 680.47044189 -205.8169281 680.80044189 -204.1169281 681.14044189 C-204.1169281 682.46044189 -204.1169281 683.78044189 -204.1169281 685.14044189 C-202.7969281 685.14044189 -201.4769281 685.14044189 -200.1169281 685.14044189 C-199.7869281 686.79044189 -199.4569281 688.44044189 -199.1169281 690.14044189 C-197.7969281 690.14044189 -196.4769281 690.14044189 -195.1169281 690.14044189 C-195.1169281 691.46044189 -195.1169281 692.78044189 -195.1169281 694.14044189 C-193.4669281 694.47044189 -191.8169281 694.80044189 -190.1169281 695.14044189 C-190.1169281 697.78044189 -190.1169281 700.42044189 -190.1169281 703.14044189 C-187.1469281 703.47044189 -184.1769281 703.80044189 -181.1169281 704.14044189 C-181.1169281 705.46044189 -181.1169281 706.78044189 -181.1169281 708.14044189 C-179.4669281 708.47044189 -177.8169281 708.80044189 -176.1169281 709.14044189 C-176.1169281 710.46044189 -176.1169281 711.78044189 -176.1169281 713.14044189 C-174.7969281 713.14044189 -173.4769281 713.14044189 -172.1169281 713.14044189 C-171.7869281 714.79044189 -171.4569281 716.44044189 -171.1169281 718.14044189 C-169.7969281 718.14044189 -168.4769281 718.14044189 -167.1169281 718.14044189 C-166.7869281 719.13044189 -166.4569281 720.12044189 -166.1169281 721.14044189 C-164.10184452 721.87367986 -164.10184452 721.87367986 -162.1169281 722.14044189 C-162.1169281 723.79044189 -162.1169281 725.44044189 -162.1169281 727.14044189 C-160.4669281 727.14044189 -158.8169281 727.14044189 -157.1169281 727.14044189 C-157.1169281 728.79044189 -157.1169281 730.44044189 -157.1169281 732.14044189 C-154.4769281 732.14044189 -151.8369281 732.14044189 -149.1169281 732.14044189 C-148.7869281 733.46044189 -148.4569281 734.78044189 -148.1169281 736.14044189 C-146.4669281 736.47044189 -144.8169281 736.80044189 -143.1169281 737.14044189 C-143.1169281 738.46044189 -143.1169281 739.78044189 -143.1169281 741.14044189 C-141.4669281 741.47044189 -139.8169281 741.80044189 -138.1169281 742.14044189 C-138.1169281 743.46044189 -138.1169281 744.78044189 -138.1169281 746.14044189 C-135.1469281 746.14044189 -132.1769281 746.14044189 -129.1169281 746.14044189 C-129.1169281 747.46044189 -129.1169281 748.78044189 -129.1169281 750.14044189 C-126.1469281 750.47044189 -123.1769281 750.80044189 -120.1169281 751.14044189 C-120.1169281 752.46044189 -120.1169281 753.78044189 -120.1169281 755.14044189 C-118.4669281 755.14044189 -116.8169281 755.14044189 -115.1169281 755.14044189 C-115.1169281 756.79044189 -115.1169281 758.44044189 -115.1169281 760.14044189 C-112.1469281 760.14044189 -109.1769281 760.14044189 -106.1169281 760.14044189 C-106.1169281 761.46044189 -106.1169281 762.78044189 -106.1169281 764.14044189 C-104.1988031 764.10950439 -104.1988031 764.10950439 -102.2419281 764.07794189 C-98.3669281 764.01544189 -98.3669281 764.01544189 -96.1169281 765.14044189 C-96.1169281 766.46044189 -96.1169281 767.78044189 -96.1169281 769.14044189 C-93.1469281 769.14044189 -90.1769281 769.14044189 -87.1169281 769.14044189 C-87.1169281 770.79044189 -87.1169281 772.44044189 -87.1169281 774.14044189 C-84.1469281 774.14044189 -81.1769281 774.14044189 -78.1169281 774.14044189 C-77.7869281 775.46044189 -77.4569281 776.78044189 -77.1169281 778.14044189 C-76.52524841 778.11723877 -75.93356873 778.09403564 -75.32395935 778.07012939 C-70.77890851 777.96632725 -67.25752752 778.00335833 -63.1169281 780.14044189 C-63.1169281 781.13044189 -63.1169281 782.12044189 -63.1169281 783.14044189 C-58.8269281 783.14044189 -54.5369281 783.14044189 -50.1169281 783.14044189 C-49.7869281 784.79044189 -49.4569281 786.44044189 -49.1169281 788.14044189 C-44.8269281 788.14044189 -40.5369281 788.14044189 -36.1169281 788.14044189 C-35.7869281 789.46044189 -35.4569281 790.78044189 -35.1169281 792.14044189 C-29.1769281 792.47044189 -23.2369281 792.80044189 -17.1169281 793.14044189 C-16.7869281 794.46044189 -16.4569281 795.78044189 -16.1169281 797.14044189 C-7.2069281 797.14044189 1.7030719 797.14044189 10.8830719 797.14044189 C11.2130719 798.79044189 11.5430719 800.44044189 11.8830719 802.14044189 C41.2530719 802.14044189 70.6230719 802.14044189 100.8830719 802.14044189 C100.8830719 800.82044189 100.8830719 799.50044189 100.8830719 798.14044189 C103.59708484 796.78343542 105.73153506 797.02805579 108.7658844 797.04278564 C109.93248596 797.0460083 111.09908752 797.04923096 112.30104065 797.05255127 C113.52436096 797.06093018 114.74768127 797.06930908 116.0080719 797.07794189 C117.23912659 797.08245361 118.47018127 797.08696533 119.73854065 797.09161377 C122.78676582 797.1034286 125.83489504 797.11990162 128.8830719 797.14044189 C129.2130719 795.82044189 129.5430719 794.50044189 129.8830719 793.14044189 C135.8230719 792.81044189 141.7630719 792.48044189 147.8830719 792.14044189 C148.2130719 790.82044189 148.5430719 789.50044189 148.8830719 788.14044189 C153.1730719 788.14044189 157.4630719 788.14044189 161.8830719 788.14044189 C161.8830719 786.82044189 161.8830719 785.50044189 161.8830719 784.14044189 C164.64759222 782.75818173 166.9292082 783.04518803 170.0080719 783.07794189 C171.10377502 783.08696533 172.19947815 783.09598877 173.3283844 783.10528564 C174.59295471 783.12268799 174.59295471 783.12268799 175.8830719 783.14044189 C176.2130719 781.82044189 176.5430719 780.50044189 176.8830719 779.14044189 C181.29221973 778.03815494 185.36689591 778.06389654 189.8830719 778.14044189 C189.8830719 776.82044189 189.8830719 775.50044189 189.8830719 774.14044189 C192.8530719 774.14044189 195.8230719 774.14044189 198.8830719 774.14044189 C199.2130719 772.49044189 199.5430719 770.84044189 199.8830719 769.14044189 C202.8530719 769.14044189 205.8230719 769.14044189 208.8830719 769.14044189 C208.8830719 767.82044189 208.8830719 766.50044189 208.8830719 765.14044189 C211.8530719 764.81044189 214.8230719 764.48044189 217.8830719 764.14044189 C218.2130719 762.82044189 218.5430719 761.50044189 218.8830719 760.14044189 C221.5230719 760.14044189 224.1630719 760.14044189 226.8830719 760.14044189 C227.2130719 758.49044189 227.5430719 756.84044189 227.8830719 755.14044189 C229.2030719 755.14044189 230.5230719 755.14044189 231.8830719 755.14044189 C232.2130719 753.82044189 232.5430719 752.50044189 232.8830719 751.14044189 C235.8530719 750.81044189 238.8230719 750.48044189 241.8830719 750.14044189 C241.8830719 748.82044189 241.8830719 747.50044189 241.8830719 746.14044189 C244.8530719 746.14044189 247.8230719 746.14044189 250.8830719 746.14044189 C250.8830719 744.49044189 250.8830719 742.84044189 250.8830719 741.14044189 C252.5330719 741.14044189 254.1830719 741.14044189 255.8830719 741.14044189 C256.2130719 739.49044189 256.5430719 737.84044189 256.8830719 736.14044189 C257.8730719 735.81044189 258.8630719 735.48044189 259.8830719 735.14044189 C260.2130719 734.15044189 260.5430719 733.16044189 260.8830719 732.14044189 C263.8530719 732.14044189 266.8230719 732.14044189 269.8830719 732.14044189 C269.8830719 730.49044189 269.8830719 728.84044189 269.8830719 727.14044189 C271.2030719 727.14044189 272.5230719 727.14044189 273.8830719 727.14044189 C274.2130719 725.82044189 274.5430719 724.50044189 274.8830719 723.14044189 C276.2030719 722.81044189 277.5230719 722.48044189 278.8830719 722.14044189 C278.8830719 720.82044189 278.8830719 719.50044189 278.8830719 718.14044189 C280.5330719 718.14044189 282.1830719 718.14044189 283.8830719 718.14044189 C284.2130719 716.49044189 284.5430719 714.84044189 284.8830719 713.14044189 C286.2030719 713.14044189 287.5230719 713.14044189 288.8830719 713.14044189 C288.8830719 711.82044189 288.8830719 710.50044189 288.8830719 709.14044189 C290.2030719 708.81044189 291.5230719 708.48044189 292.8830719 708.14044189 C293.2130719 706.82044189 293.5430719 705.50044189 293.8830719 704.14044189 C296.5230719 703.81044189 299.1630719 703.48044189 301.8830719 703.14044189 C302.2130719 700.50044189 302.5430719 697.86044189 302.8830719 695.14044189 C304.2030719 694.81044189 305.5230719 694.48044189 306.8830719 694.14044189 C307.2130719 692.82044189 307.5430719 691.50044189 307.8830719 690.14044189 C309.2030719 690.14044189 310.5230719 690.14044189 311.8830719 690.14044189 C312.2130719 688.49044189 312.5430719 686.84044189 312.8830719 685.14044189 C314.2030719 685.14044189 315.5230719 685.14044189 316.8830719 685.14044189 C316.8830719 683.49044189 316.8830719 681.84044189 316.8830719 680.14044189 C318.2030719 680.14044189 319.5230719 680.14044189 320.8830719 680.14044189 C321.2130719 678.82044189 321.5430719 677.50044189 321.8830719 676.14044189 C323.2030719 675.81044189 324.5230719 675.48044189 325.8830719 675.14044189 C325.8830719 673.82044189 325.8830719 672.50044189 325.8830719 671.14044189 C327.5330719 671.14044189 329.1830719 671.14044189 330.8830719 671.14044189 C330.8830719 668.17044189 330.8830719 665.20044189 330.8830719 662.14044189 C331.8730719 661.81044189 332.8630719 661.48044189 333.8830719 661.14044189 C335.09189286 659.14027723 335.09189286 659.14027723 335.8830719 657.14044189 C337.2030719 657.14044189 338.5230719 657.14044189 339.8830719 657.14044189 C339.8830719 655.49044189 339.8830719 653.84044189 339.8830719 652.14044189 C341.5330719 652.14044189 343.1830719 652.14044189 344.8830719 652.14044189 C344.8830719 649.17044189 344.8830719 646.20044189 344.8830719 643.14044189 C346.2030719 643.14044189 347.5230719 643.14044189 348.8830719 643.14044189 C349.2130719 640.17044189 349.5430719 637.20044189 349.8830719 634.14044189 C351.2030719 633.81044189 352.5230719 633.48044189 353.8830719 633.14044189 C353.8830719 631.82044189 353.8830719 630.50044189 353.8830719 629.14044189 C355.5330719 628.81044189 357.1830719 628.48044189 358.8830719 628.14044189 C358.8830719 625.50044189 358.8830719 622.86044189 358.8830719 620.14044189 C360.2030719 619.81044189 361.5230719 619.48044189 362.8830719 619.14044189 C362.8521344 617.46981689 362.8521344 617.46981689 362.8205719 615.76544189 C362.8830719 612.14044189 362.8830719 612.14044189 363.8830719 610.14044189 C365.2030719 610.14044189 366.5230719 610.14044189 367.8830719 610.14044189 C367.8830719 607.17044189 367.8830719 604.20044189 367.8830719 601.14044189 C369.5330719 600.81044189 371.1830719 600.48044189 372.8830719 600.14044189 C372.8830719 597.17044189 372.8830719 594.20044189 372.8830719 591.14044189 C374.2030719 591.14044189 375.5230719 591.14044189 376.8830719 591.14044189 C376.87147034 590.38118408 376.85986877 589.62192627 376.84791565 588.83966064 C376.83438049 587.34885986 376.83438049 587.34885986 376.8205719 585.82794189 C376.80316956 584.34874268 376.80316956 584.34874268 376.78541565 582.83966064 C376.8830719 580.14044189 376.8830719 580.14044189 377.8830719 577.14044189 C379.2030719 577.14044189 380.5230719 577.14044189 381.8830719 577.14044189 C381.8830719 574.17044189 381.8830719 571.20044189 381.8830719 568.14044189 C383.5330719 568.14044189 385.1830719 568.14044189 386.8830719 568.14044189 C386.8830719 561.87044189 386.8830719 555.60044189 386.8830719 549.14044189 C388.2030719 549.14044189 389.5230719 549.14044189 390.8830719 549.14044189 C391.2130719 542.87044189 391.5430719 536.60044189 391.8830719 530.14044189 C393.2030719 530.14044189 394.5230719 530.14044189 395.8830719 530.14044189 C395.87783508 529.36329834 395.87259827 528.58615479 395.86720276 527.78546143 C395.84647034 524.27879641 395.83342369 520.77214427 395.8205719 517.26544189 C395.81219299 516.04212158 395.80381409 514.81880127 395.79518127 513.55841064 C395.79195862 512.39180908 395.78873596 511.22520752 395.78541565 510.02325439 C395.78017883 508.94447021 395.77494202 507.86568604 395.76954651 506.75421143 C395.8830719 504.14044189 395.8830719 504.14044189 396.8830719 502.14044189 C398.2030719 502.14044189 399.5230719 502.14044189 400.8830719 502.14044189 C400.88215011 501.52899134 400.88122831 500.91754078 400.88027859 500.28756142 C400.85821446 485.42405995 400.84165599 470.56056006 400.83125973 455.69704628 C400.82609882 448.50922686 400.81906001 441.32141837 400.80763245 434.13360596 C400.79767937 427.87025075 400.79121698 421.60690345 400.7889834 415.34354055 C400.78767736 412.02575468 400.78407771 408.70799677 400.77734184 405.39021683 C400.77012664 401.69057094 400.76908117 397.99097255 400.76954651 394.2913208 C400.76595123 393.18577347 400.76235596 392.08022614 400.75865173 390.94117737 C400.7600264 389.93714371 400.76140106 388.93311005 400.76281738 387.89865112 C400.76189559 387.02294779 400.7609738 386.14724445 400.76002407 385.24500465 C400.8830719 383.14044189 400.8830719 383.14044189 401.8830719 381.14044189 C402.8730719 380.81044189 403.8630719 380.48044189 404.8830719 380.14044189 C405.2130719 377.50044189 405.5430719 374.86044189 405.8830719 372.14044189 C406.8111969 372.04762939 406.8111969 372.04762939 407.7580719 371.95294189 C410.16068331 371.31152289 410.16068331 371.31152289 411.1330719 368.57794189 C411.3805719 367.77356689 411.6280719 366.96919189 411.8830719 366.14044189 C412.8730719 366.14044189 413.8630719 366.14044189 414.8830719 366.14044189 C415.2130719 364.82044189 415.5430719 363.50044189 415.8830719 362.14044189 C417.2030719 361.81044189 418.5230719 361.48044189 419.8830719 361.14044189 C420.2130719 359.82044189 420.5430719 358.50044189 420.8830719 357.14044189 C421.4811969 357.03731689 422.0793219 356.93419189 422.6955719 356.82794189 C425.19176207 356.04342498 426.14039055 355.04154882 427.8830719 353.14044189 C430.40782652 351.87806459 432.19507656 352.04187785 435.0080719 352.07794189 C435.91815002 352.08696533 436.82822815 352.09598877 437.7658844 352.10528564 C438.81389221 352.12268799 438.81389221 352.12268799 439.8830719 352.14044189 C440.1511969 351.50106689 440.4193219 350.86169189 440.6955719 350.20294189 C441.8830719 348.14044189 441.8830719 348.14044189 444.8830719 347.14044189 C448.90012133 346.90814095 452.92251076 346.95527681 456.9455719 346.95294189 C458.05996643 346.9406958 459.17436096 346.92844971 460.32252502 346.91583252 C461.38535706 346.91389893 462.44818909 346.91196533 463.54322815 346.90997314 C464.51912903 346.90586426 465.49502991 346.90175537 466.50050354 346.89752197 C468.8830719 347.14044189 468.8830719 347.14044189 470.8830719 349.14044189 C470.8830719 350.13044189 470.8830719 351.12044189 470.8830719 352.14044189 C471.72611877 352.11723877 472.56916565 352.09403564 473.4377594 352.07012939 C474.53346252 352.05208252 475.62916565 352.03403564 476.7580719 352.01544189 C477.84861877 351.99223877 478.93916565 351.96903564 480.0627594 351.94512939 C482.8830719 352.14044189 482.8830719 352.14044189 484.8830719 354.14044189 C484.8830719 355.13044189 484.8830719 356.12044189 484.8830719 357.14044189 C486.5536969 357.07856689 486.5536969 357.07856689 488.2580719 357.01544189 C491.8830719 357.14044189 491.8830719 357.14044189 493.8830719 359.14044189 C493.8830719 360.13044189 493.8830719 361.12044189 493.8830719 362.14044189 C494.5224469 362.26419189 495.1618219 362.38794189 495.8205719 362.51544189 C496.5011969 362.72169189 497.1818219 362.92794189 497.8830719 363.14044189 C499.23746858 365.84923525 498.94808641 368.14977457 498.8830719 371.14044189 C500.5330719 371.47044189 502.1830719 371.80044189 503.8830719 372.14044189 C503.8830719 373.46044189 503.8830719 374.78044189 503.8830719 376.14044189 C504.8421344 376.51169189 504.8421344 376.51169189 505.8205719 376.89044189 C507.8830719 378.14044189 507.8830719 378.14044189 508.5080719 379.79669189 C508.99704708 382.85278679 508.97650808 385.79682405 508.9455719 388.89044189 C508.93654846 390.06091064 508.92752502 391.23137939 508.91822815 392.43731689 C508.90082581 393.77536377 508.90082581 393.77536377 508.8830719 395.14044189 C509.8730719 395.14044189 510.8630719 395.14044189 511.8830719 395.14044189 C513.11997438 397.61424686 513.01436589 399.25582718 513.02351379 402.02359009 C513.03207901 403.57145454 513.03207901 403.57145454 513.04081726 405.15058899 C513.04193512 406.2872551 513.04305298 407.4239212 513.04420471 408.59503174 C513.04916962 409.7885878 513.05413452 410.98214386 513.05924988 412.21186829 C513.07137082 415.49084525 513.07881985 418.76978654 513.08326054 422.04878187 C513.08619035 424.09680044 513.09029498 426.14481339 513.09476471 428.19282913 C513.10844096 434.59899411 513.11810703 441.00514629 513.1219666 447.41132486 C513.12644807 454.8093515 513.14399938 462.20719345 513.1729672 469.60516393 C513.19457458 475.32157152 513.20467037 481.0379271 513.20600772 486.7543751 C513.20705642 490.16950681 513.21297777 493.58446492 513.23082733 496.99955368 C513.24782439 500.80886699 513.2460229 504.61772747 513.23951721 508.42706299 C513.25333939 510.12598946 513.25333939 510.12598946 513.2674408 511.85923767 C513.26187164 512.89678696 513.25630249 513.93433624 513.25056458 515.00332642 C513.25203114 515.9040859 513.2534977 516.80484539 513.2550087 517.73290062 C512.80988195 520.61419936 511.70640828 521.91380662 509.8830719 524.14044189 C509.41544279 526.66107061 509.41544279 526.66107061 509.44166565 529.38653564 C509.41523987 530.38878174 509.38881409 531.39102783 509.36158752 532.42364502 C509.34805237 533.46456299 509.33451721 534.50548096 509.3205719 535.57794189 C509.2859811 537.63929743 509.24328991 539.70053635 509.19166565 541.76153564 C509.17933899 542.6734668 509.16701233 543.58539795 509.15431213 544.52496338 C508.85344179 547.42615511 508.23832876 549.55766502 506.8830719 552.14044189 C505.8930719 552.47044189 504.9030719 552.80044189 503.8830719 553.14044189 C503.90627502 554.10466064 503.92947815 555.06887939 503.9533844 556.06231689 C503.98045471 557.95723877 503.98045471 557.95723877 504.0080719 559.89044189 C504.04287659 561.76989502 504.04287659 561.76989502 504.0783844 563.68731689 C503.89779994 566.88005005 503.68076283 568.55076125 501.8830719 571.14044189 C501.2230719 571.47044189 500.5630719 571.80044189 499.8830719 572.14044189 C499.59616233 574.81136298 499.41549143 577.39935905 499.3205719 580.07794189 C499.00097635 587.904633 499.00097635 587.904633 497.8830719 590.14044189 C496.8930719 590.14044189 495.9030719 590.14044189 494.8830719 590.14044189 C494.91787659 591.13624268 494.91787659 591.13624268 494.9533844 592.15216064 C495.13263253 600.92251571 495.13263253 600.92251571 492.8830719 605.14044189 C491.8930719 605.14044189 490.9030719 605.14044189 489.8830719 605.14044189 C489.90627502 605.98348877 489.92947815 606.82653564 489.9533844 607.69512939 C489.98045471 609.33868408 489.98045471 609.33868408 490.0080719 611.01544189 C490.03127502 612.10598877 490.05447815 613.19653564 490.0783844 614.32012939 C489.8830719 617.14044189 489.8830719 617.14044189 487.8830719 619.14044189 C486.8930719 619.14044189 485.9030719 619.14044189 484.8830719 619.14044189 C484.8830719 623.10044189 484.8830719 627.06044189 484.8830719 631.14044189 C483.2330719 631.80044189 481.5830719 632.46044189 479.8830719 633.14044189 C479.8830719 636.11044189 479.8830719 639.08044189 479.8830719 642.14044189 C478.5630719 642.14044189 477.2430719 642.14044189 475.8830719 642.14044189 C475.9449469 644.05856689 475.9449469 644.05856689 476.0080719 646.01544189 C476.0783844 648.19512939 476.0783844 648.19512939 475.8830719 650.14044189 C475.2230719 650.80044189 474.5630719 651.46044189 473.8830719 652.14044189 C472.8930719 652.14044189 471.9030719 652.14044189 470.8830719 652.14044189 C470.8830719 654.78044189 470.8830719 657.42044189 470.8830719 660.14044189 C469.2330719 660.47044189 467.5830719 660.80044189 465.8830719 661.14044189 C465.8830719 664.11044189 465.8830719 667.08044189 465.8830719 670.14044189 C464.5630719 670.14044189 463.2430719 670.14044189 461.8830719 670.14044189 C461.8830719 673.11044189 461.8830719 676.08044189 461.8830719 679.14044189 C460.2330719 679.47044189 458.5830719 679.80044189 456.8830719 680.14044189 C456.8830719 682.78044189 456.8830719 685.42044189 456.8830719 688.14044189 C455.2330719 688.47044189 453.5830719 688.80044189 451.8830719 689.14044189 C451.8830719 691.78044189 451.8830719 694.42044189 451.8830719 697.14044189 C450.5630719 697.47044189 449.2430719 697.80044189 447.8830719 698.14044189 C447.5530719 699.79044189 447.2230719 701.44044189 446.8830719 703.14044189 C445.5630719 703.14044189 444.2430719 703.14044189 442.8830719 703.14044189 C442.8830719 706.11044189 442.8830719 709.08044189 442.8830719 712.14044189 C441.2330719 712.47044189 439.5830719 712.80044189 437.8830719 713.14044189 C437.8830719 714.46044189 437.8830719 715.78044189 437.8830719 717.14044189 C436.5630719 717.14044189 435.2430719 717.14044189 433.8830719 717.14044189 C433.5530719 720.11044189 433.2230719 723.08044189 432.8830719 726.14044189 C431.5630719 726.47044189 430.2430719 726.80044189 428.8830719 727.14044189 C428.5530719 728.46044189 428.2230719 729.78044189 427.8830719 731.14044189 C426.5630719 731.14044189 425.2430719 731.14044189 423.8830719 731.14044189 C423.8830719 732.79044189 423.8830719 734.44044189 423.8830719 736.14044189 C422.5630719 736.14044189 421.2430719 736.14044189 419.8830719 736.14044189 C419.5530719 739.11044189 419.2230719 742.08044189 418.8830719 745.14044189 C417.5630719 745.14044189 416.2430719 745.14044189 414.8830719 745.14044189 C414.5530719 746.79044189 414.2230719 748.44044189 413.8830719 750.14044189 C412.5630719 750.14044189 411.2430719 750.14044189 409.8830719 750.14044189 C409.8830719 751.79044189 409.8830719 753.44044189 409.8830719 755.14044189 C408.2330719 755.14044189 406.5830719 755.14044189 404.8830719 755.14044189 C404.5530719 756.79044189 404.2230719 758.44044189 403.8830719 760.14044189 C402.8930719 760.14044189 401.9030719 760.14044189 400.8830719 760.14044189 C400.8830719 761.46044189 400.8830719 762.78044189 400.8830719 764.14044189 C399.2330719 764.14044189 397.5830719 764.14044189 395.8830719 764.14044189 C395.8830719 765.79044189 395.8830719 767.44044189 395.8830719 769.14044189 C394.2330719 769.14044189 392.5830719 769.14044189 390.8830719 769.14044189 C390.8830719 772.11044189 390.8830719 775.08044189 390.8830719 778.14044189 C389.5630719 778.14044189 388.2430719 778.14044189 386.8830719 778.14044189 C386.5530719 779.79044189 386.2230719 781.44044189 385.8830719 783.14044189 C384.5630719 783.14044189 383.2430719 783.14044189 381.8830719 783.14044189 C381.8830719 784.46044189 381.8830719 785.78044189 381.8830719 787.14044189 C380.2330719 787.47044189 378.5830719 787.80044189 376.8830719 788.14044189 C376.8830719 789.46044189 376.8830719 790.78044189 376.8830719 792.14044189 C373.9130719 792.14044189 370.9430719 792.14044189 367.8830719 792.14044189 C367.8830719 793.79044189 367.8830719 795.44044189 367.8830719 797.14044189 C366.2330719 797.14044189 364.5830719 797.14044189 362.8830719 797.14044189 C362.8830719 798.79044189 362.8830719 800.44044189 362.8830719 802.14044189 C361.5630719 802.14044189 360.2430719 802.14044189 358.8830719 802.14044189 C358.5530719 803.46044189 358.2230719 804.78044189 357.8830719 806.14044189 C356.5630719 806.14044189 355.2430719 806.14044189 353.8830719 806.14044189 C353.8830719 807.79044189 353.8830719 809.44044189 353.8830719 811.14044189 C352.2330719 811.14044189 350.5830719 811.14044189 348.8830719 811.14044189 C348.8830719 812.79044189 348.8830719 814.44044189 348.8830719 816.14044189 C347.2330719 816.14044189 345.5830719 816.14044189 343.8830719 816.14044189 C343.8830719 817.46044189 343.8830719 818.78044189 343.8830719 820.14044189 C340.9130719 820.47044189 337.9430719 820.80044189 334.8830719 821.14044189 C334.8830719 822.46044189 334.8830719 823.78044189 334.8830719 825.14044189 C333.2330719 825.14044189 331.5830719 825.14044189 329.8830719 825.14044189 C329.8830719 826.79044189 329.8830719 828.44044189 329.8830719 830.14044189 C328.5630719 830.14044189 327.2430719 830.14044189 325.8830719 830.14044189 C325.5530719 831.46044189 325.2230719 832.78044189 324.8830719 834.14044189 C321.9130719 834.47044189 318.9430719 834.80044189 315.8830719 835.14044189 C315.8830719 836.46044189 315.8830719 837.78044189 315.8830719 839.14044189 C314.5630719 839.14044189 313.2430719 839.14044189 311.8830719 839.14044189 C311.5530719 840.79044189 311.2230719 842.44044189 310.8830719 844.14044189 C307.9130719 844.14044189 304.9430719 844.14044189 301.8830719 844.14044189 C301.5530719 845.79044189 301.2230719 847.44044189 300.8830719 849.14044189 C299.5630719 849.14044189 298.2430719 849.14044189 296.8830719 849.14044189 C296.5530719 850.46044189 296.2230719 851.78044189 295.8830719 853.14044189 C293.2430719 853.14044189 290.6030719 853.14044189 287.8830719 853.14044189 C287.5530719 854.79044189 287.2230719 856.44044189 286.8830719 858.14044189 C284.2430719 858.14044189 281.6030719 858.14044189 278.8830719 858.14044189 C278.5530719 859.79044189 278.2230719 861.44044189 277.8830719 863.14044189 C274.9130719 863.14044189 271.9430719 863.14044189 268.8830719 863.14044189 C268.8830719 864.46044189 268.8830719 865.78044189 268.8830719 867.14044189 C265.9130719 867.14044189 262.9430719 867.14044189 259.8830719 867.14044189 C259.8830719 868.79044189 259.8830719 870.44044189 259.8830719 872.14044189 C256.9130719 872.14044189 253.9430719 872.14044189 250.8830719 872.14044189 C250.5530719 873.79044189 250.2230719 875.44044189 249.8830719 877.14044189 C246.9130719 877.14044189 243.9430719 877.14044189 240.8830719 877.14044189 C240.8830719 878.46044189 240.8830719 879.78044189 240.8830719 881.14044189 C236.2630719 881.47044189 231.6430719 881.80044189 226.8830719 882.14044189 C226.8830719 883.46044189 226.8830719 884.78044189 226.8830719 886.14044189 C223.9130719 886.47044189 220.9430719 886.80044189 217.8830719 887.14044189 C217.5530719 888.13044189 217.2230719 889.12044189 216.8830719 890.14044189 C213.9916633 891.25990319 211.20544578 891.24812386 208.1330719 891.20294189 C207.33385315 891.19391846 206.5346344 891.18489502 205.7111969 891.17559814 C204.80627502 891.1581958 204.80627502 891.1581958 203.8830719 891.14044189 C203.5530719 892.46044189 203.2230719 893.78044189 202.8830719 895.14044189 C199.88826272 896.0127831 197.24731279 896.24873955 194.1330719 896.20294189 C193.33385315 896.19391846 192.5346344 896.18489502 191.7111969 896.17559814 C190.80627502 896.1581958 190.80627502 896.1581958 189.8830719 896.14044189 C189.2230719 897.46044189 188.5630719 898.78044189 187.8830719 900.14044189 C182.2730719 900.14044189 176.6630719 900.14044189 170.8830719 900.14044189 C170.5530719 901.46044189 170.2230719 902.78044189 169.8830719 904.14044189 C168.8830719 905.14044189 168.8830719 905.14044189 165.06666565 905.23809814 C163.48460508 905.23142278 161.90256031 905.21946065 160.3205719 905.20294189 C159.51426331 905.19843018 158.70795471 905.19391846 157.87721252 905.18927002 C155.87913434 905.17744707 153.88109407 905.15951104 151.8830719 905.14044189 C151.5530719 906.46044189 151.2230719 907.78044189 150.8830719 909.14044189 C147.34118912 910.23872958 144.0620957 910.254892 140.3674469 910.23809814 C138.49186096 910.23326416 138.49186096 910.23326416 136.5783844 910.22833252 C135.27643127 910.21995361 133.97447815 910.21157471 132.6330719 910.20294189 C130.65693909 910.19617432 130.65693909 910.19617432 128.6408844 910.18927002 C125.38823449 910.17748506 122.13567606 910.16103201 118.8830719 910.14044189 C118.2230719 911.46044189 117.5630719 912.78044189 116.8830719 914.14044189 C100.76729415 914.16378854 84.65152188 914.18142977 68.53573132 914.19225407 C61.05311709 914.19741326 53.57051337 914.20444882 46.08790588 914.21588135 C39.56707846 914.22583965 33.04625864 914.23229806 26.52542382 914.23453039 C23.07179181 914.23583554 19.61818155 914.23890909 16.1645565 914.24617195 C12.31185367 914.25420856 8.45917224 914.25443229 4.60646057 914.25396729 C2.88340195 914.2593602 2.88340195 914.2593602 1.12553406 914.26486206 C0.07805496 914.2634874 -0.96942413 914.26211273 -2.04864502 914.26069641 C-2.96029828 914.2616182 -3.87195154 914.26254 -4.81123066 914.26348972 C-7.1169281 914.14044189 -7.1169281 914.14044189 -10.1169281 913.14044189 C-10.4469281 912.48044189 -10.7769281 911.82044189 -11.1169281 911.14044189 C-11.87312439 911.12062256 -12.62932068 911.10080322 -13.40843201 911.0803833 C-16.85326528 910.98479617 -20.29752011 910.87525299 -23.7419281 910.76544189 C-24.93173279 910.73450439 -26.12153748 910.70356689 -27.34739685 910.67169189 C-28.50110779 910.63302002 -29.65481873 910.59434814 -30.8434906 910.55450439 C-31.90132751 910.5230835 -32.95916443 910.4916626 -34.04905701 910.45928955 C-37.36212157 910.11495863 -40.06139149 909.46959194 -43.1169281 908.14044189 C-43.4469281 907.15044189 -43.7769281 906.16044189 -44.1169281 905.14044189 C-45.16493591 905.15204346 -46.21294373 905.16364502 -47.29270935 905.17559814 C-48.67161382 905.18497845 -50.05052021 905.19407839 -51.4294281 905.20294189 C-52.11972107 905.2113208 -52.81001404 905.21969971 -53.52122498 905.22833252 C-56.6652306 905.24352095 -59.11112829 905.14237516 -62.1169281 904.14044189 C-62.8044281 902.07794189 -62.8044281 902.07794189 -63.1169281 900.14044189 C-63.87618591 900.17524658 -64.63544373 900.21005127 -65.41770935 900.24591064 C-66.90851013 900.28651611 -66.90851013 900.28651611 -68.4294281 900.32794189 C-69.41556091 900.36274658 -70.40169373 900.39755127 -71.41770935 900.43341064 C-74.1169281 900.14044189 -74.1169281 900.14044189 -75.53929138 898.66119385 C-78.60385136 895.70713255 -83.92923399 896.26762363 -88.04466248 895.96856689 C-90.07931234 895.78599262 -92.10106615 895.47125001 -94.1169281 895.14044189 C-94.7769281 894.15044189 -95.4369281 893.16044189 -96.1169281 892.14044189 C-98.29590302 891.13238634 -98.29590302 891.13238634 -100.7419281 890.45294189 C-101.96782654 890.07589111 -101.96782654 890.07589111 -103.2184906 889.69122314 C-103.84497498 889.50946533 -104.47145935 889.32770752 -105.1169281 889.14044189 C-105.1169281 888.15044189 -105.1169281 887.16044189 -105.1169281 886.14044189 C-106.38149841 886.15784424 -106.38149841 886.15784424 -107.6716156 886.17559814 C-108.76731873 886.18462158 -109.86302185 886.19364502 -110.9919281 886.20294189 C-112.62774841 886.22034424 -112.62774841 886.22034424 -114.2966156 886.23809814 C-117.1169281 886.14044189 -117.1169281 886.14044189 -119.1169281 885.14044189 C-119.4469281 884.15044189 -119.7769281 883.16044189 -120.1169281 882.14044189 C-124.0769281 881.81044189 -128.0369281 881.48044189 -132.1169281 881.14044189 C-132.4469281 879.82044189 -132.7769281 878.50044189 -133.1169281 877.14044189 C-136.0869281 876.81044189 -139.0569281 876.48044189 -142.1169281 876.14044189 C-142.4469281 875.15044189 -142.7769281 874.16044189 -143.1169281 873.14044189 C-144.7875531 872.95481689 -144.7875531 872.95481689 -146.4919281 872.76544189 C-150.1169281 872.14044189 -150.1169281 872.14044189 -152.1169281 870.14044189 C-152.1169281 869.15044189 -152.1169281 868.16044189 -152.1169281 867.14044189 C-154.7569281 867.14044189 -157.3969281 867.14044189 -160.1169281 867.14044189 C-160.4469281 865.82044189 -160.7769281 864.50044189 -161.1169281 863.14044189 C-164.0869281 862.81044189 -167.0569281 862.48044189 -170.1169281 862.14044189 C-170.4469281 860.82044189 -170.7769281 859.50044189 -171.1169281 858.14044189 C-172.4369281 858.14044189 -173.7569281 858.14044189 -175.1169281 858.14044189 C-175.4469281 856.49044189 -175.7769281 854.84044189 -176.1169281 853.14044189 C-178.7569281 853.14044189 -181.3969281 853.14044189 -184.1169281 853.14044189 C-184.4469281 851.82044189 -184.7769281 850.50044189 -185.1169281 849.14044189 C-187.7569281 848.81044189 -190.3969281 848.48044189 -193.1169281 848.14044189 C-193.4469281 846.82044189 -193.7769281 845.50044189 -194.1169281 844.14044189 C-195.4369281 843.81044189 -196.7569281 843.48044189 -198.1169281 843.14044189 C-198.4469281 841.82044189 -198.7769281 840.50044189 -199.1169281 839.14044189 C-201.7569281 839.14044189 -204.3969281 839.14044189 -207.1169281 839.14044189 C-207.4469281 837.49044189 -207.7769281 835.84044189 -208.1169281 834.14044189 C-209.7669281 833.81044189 -211.4169281 833.48044189 -213.1169281 833.14044189 C-213.1169281 832.15044189 -213.1169281 831.16044189 -213.1169281 830.14044189 C-214.7669281 829.81044189 -216.4169281 829.48044189 -218.1169281 829.14044189 C-218.1169281 827.82044189 -218.1169281 826.50044189 -218.1169281 825.14044189 C-220.7569281 825.14044189 -223.3969281 825.14044189 -226.1169281 825.14044189 C-226.4469281 823.49044189 -226.7769281 821.84044189 -227.1169281 820.14044189 C-228.4369281 820.14044189 -229.7569281 820.14044189 -231.1169281 820.14044189 C-231.4469281 818.82044189 -231.7769281 817.50044189 -232.1169281 816.14044189 C-233.4369281 816.14044189 -234.7569281 816.14044189 -236.1169281 816.14044189 C-236.4469281 814.49044189 -236.7769281 812.84044189 -237.1169281 811.14044189 C-238.2306781 811.18169189 -239.3444281 811.22294189 -240.4919281 811.26544189 C-244.1169281 811.14044189 -244.1169281 811.14044189 -246.1169281 809.14044189 C-246.1169281 808.15044189 -246.1169281 807.16044189 -246.1169281 806.14044189 C-247.4369281 806.14044189 -248.7569281 806.14044189 -250.1169281 806.14044189 C-250.1169281 804.82044189 -250.1169281 803.50044189 -250.1169281 802.14044189 C-251.7669281 801.48044189 -253.4169281 800.82044189 -255.1169281 800.14044189 C-255.1169281 799.15044189 -255.1169281 798.16044189 -255.1169281 797.14044189 C-256.4369281 796.81044189 -257.7569281 796.48044189 -259.1169281 796.14044189 C-259.4469281 794.82044189 -259.7769281 793.50044189 -260.1169281 792.14044189 C-261.4369281 792.14044189 -262.7569281 792.14044189 -264.1169281 792.14044189 C-264.4469281 790.82044189 -264.7769281 789.50044189 -265.1169281 788.14044189 C-266.4369281 787.81044189 -267.7569281 787.48044189 -269.1169281 787.14044189 C-269.1169281 785.82044189 -269.1169281 784.50044189 -269.1169281 783.14044189 C-270.4369281 782.81044189 -271.7569281 782.48044189 -273.1169281 782.14044189 C-273.4469281 780.82044189 -273.7769281 779.50044189 -274.1169281 778.14044189 C-275.4369281 777.81044189 -276.7569281 777.48044189 -278.1169281 777.14044189 C-278.4469281 775.82044189 -278.7769281 774.50044189 -279.1169281 773.14044189 C-280.4369281 773.14044189 -281.7569281 773.14044189 -283.1169281 773.14044189 C-283.1169281 771.82044189 -283.1169281 770.50044189 -283.1169281 769.14044189 C-284.4369281 768.81044189 -285.7569281 768.48044189 -287.1169281 768.14044189 C-287.4469281 766.82044189 -287.7769281 765.50044189 -288.1169281 764.14044189 C-289.4369281 763.81044189 -290.7569281 763.48044189 -292.1169281 763.14044189 C-292.4469281 761.82044189 -292.7769281 760.50044189 -293.1169281 759.14044189 C-294.4369281 759.14044189 -295.7569281 759.14044189 -297.1169281 759.14044189 C-297.6119281 754.68544189 -297.6119281 754.68544189 -298.1169281 750.14044189 C-299.4369281 750.14044189 -300.7569281 750.14044189 -302.1169281 750.14044189 C-302.1169281 748.49044189 -302.1169281 746.84044189 -302.1169281 745.14044189 C-303.4369281 745.14044189 -304.7569281 745.14044189 -306.1169281 745.14044189 C-306.4469281 743.82044189 -306.7769281 742.50044189 -307.1169281 741.14044189 C-308.4369281 740.81044189 -309.7569281 740.48044189 -311.1169281 740.14044189 C-311.6119281 735.68544189 -311.6119281 735.68544189 -312.1169281 731.14044189 C-313.4369281 731.14044189 -314.7569281 731.14044189 -316.1169281 731.14044189 C-316.1994281 730.52169189 -316.2819281 729.90294189 -316.3669281 729.26544189 C-316.92951269 726.95606622 -316.92951269 726.95606622 -319.1794281 725.89044189 C-319.8188031 725.64294189 -320.4581781 725.39544189 -321.1169281 725.14044189 C-321.1169281 724.15044189 -321.1169281 723.16044189 -321.1169281 722.14044189 C-322.4369281 721.81044189 -323.7569281 721.48044189 -325.1169281 721.14044189 C-325.4469281 718.50044189 -325.7769281 715.86044189 -326.1169281 713.14044189 C-327.4369281 712.81044189 -328.7569281 712.48044189 -330.1169281 712.14044189 C-330.1169281 710.82044189 -330.1169281 709.50044189 -330.1169281 708.14044189 C-330.7563031 707.99606689 -331.3956781 707.85169189 -332.0544281 707.70294189 C-334.1169281 707.14044189 -334.1169281 707.14044189 -335.1169281 706.14044189 C-335.25807971 703.46985338 -335.15939917 700.81611952 -335.1169281 698.14044189 C-336.4369281 698.14044189 -337.7569281 698.14044189 -339.1169281 698.14044189 C-339.6119281 693.68544189 -339.6119281 693.68544189 -340.1169281 689.14044189 C-341.4369281 689.14044189 -342.7569281 689.14044189 -344.1169281 689.14044189 C-344.1169281 687.49044189 -344.1169281 685.84044189 -344.1169281 684.14044189 C-345.7669281 683.81044189 -347.4169281 683.48044189 -349.1169281 683.14044189 C-349.1169281 680.50044189 -349.1169281 677.86044189 -349.1169281 675.14044189 C-350.4369281 674.81044189 -351.7569281 674.48044189 -353.1169281 674.14044189 C-353.54010518 672.12221273 -353.96328227 670.10398356 -354.38645935 668.08575439 C-355.04001649 665.7699764 -355.04001649 665.7699764 -358.1169281 664.14044189 C-358.52536734 661.42840538 -358.25029677 658.89672769 -358.1169281 656.14044189 C-359.4369281 656.14044189 -360.7569281 656.14044189 -362.1169281 656.14044189 C-363.5952507 653.1837967 -363.17725593 650.39814452 -363.1169281 647.14044189 C-364.4369281 646.81044189 -365.7569281 646.48044189 -367.1169281 646.14044189 C-367.22649841 645.22520752 -367.33606873 644.30997314 -367.44895935 643.36700439 C-367.60751404 642.17848877 -367.76606873 640.98997314 -367.9294281 639.76544189 C-368.08024841 638.58208252 -368.23106873 637.39872314 -368.38645935 636.17950439 C-368.82392144 632.84512105 -368.82392144 632.84512105 -372.1169281 631.14044189 C-372.81552263 628.06662596 -373.13077125 625.0204679 -373.4919281 621.89044189 C-373.85902435 618.81518095 -373.85902435 618.81518095 -377.1169281 617.14044189 C-377.52536734 614.42840538 -377.25029677 611.89672769 -377.1169281 609.14044189 C-377.7563031 609.01669189 -378.3956781 608.89294189 -379.0544281 608.76544189 C-379.7350531 608.55919189 -380.4156781 608.35294189 -381.1169281 608.14044189 C-382.71105094 604.95219622 -382.21867545 601.51147527 -382.1794281 598.01544189 C-382.17491638 597.26134033 -382.17040466 596.50723877 -382.16575623 595.73028564 C-382.15396309 593.86697063 -382.13602752 592.00369634 -382.1169281 590.14044189 C-383.4369281 589.81044189 -384.7569281 589.48044189 -386.1169281 589.14044189 C-386.98926931 586.14563272 -387.22522576 583.50468279 -387.1794281 580.39044189 C-387.17040466 579.59122314 -387.16138123 578.79200439 -387.15208435 577.96856689 C-387.14048279 577.36528564 -387.12888123 576.76200439 -387.1169281 576.14044189 C-388.4369281 575.48044189 -389.7569281 574.82044189 -391.1169281 574.14044189 C-391.1169281 568.53044189 -391.1169281 562.92044189 -391.1169281 557.14044189 C-392.4369281 556.81044189 -393.7569281 556.48044189 -395.1169281 556.14044189 C-396.25610028 552.72292536 -396.23031291 550.10556252 -396.21458435 546.50372314 C-396.21136169 545.20499268 -396.20813904 543.90626221 -396.20481873 542.56817627 C-396.19646341 541.19643081 -396.18799847 539.82468602 -396.1794281 538.45294189 C-396.17441145 537.06947994 -396.16984883 535.68601626 -396.16575623 534.30255127 C-396.15395339 530.91513795 -396.13748829 527.52781156 -396.1169281 524.14044189 C-397.1069281 523.81044189 -398.0969281 523.48044189 -399.1169281 523.14044189 C-401.12247888 520.145897 -401.36783793 517.68275952 -401.37089539 514.13067627 C-401.37653503 513.12125977 -401.38217468 512.11184326 -401.38798523 511.07183838 C-401.38393677 509.97041504 -401.37988831 508.8689917 -401.37571716 507.73419189 C-401.3792218 506.56960449 -401.38272644 505.40501709 -401.38633728 504.20513916 C-401.39514985 500.35017969 -401.38930698 496.49540328 -401.3825531 492.64044189 C-401.38389988 489.96530936 -401.38583737 487.29018241 -401.38835144 484.61505127 C-401.39198905 479.00630708 -401.38719739 473.39761558 -401.37767029 467.78887939 C-401.3667861 461.30639168 -401.37031183 454.82402977 -401.3813231 448.3415451 C-401.39040184 442.77370884 -401.39167838 437.20591043 -401.38644576 431.63806915 C-401.38332928 428.31355883 -401.38369421 424.98912054 -401.38951874 421.66461182 C-401.39458648 417.95855145 -401.3868699 414.25273412 -401.37571716 410.54669189 C-401.37976563 409.44526855 -401.38381409 408.34384521 -401.38798523 407.20904541 C-401.38234558 406.19962891 -401.37670593 405.1902124 -401.37089539 404.15020752 C-401.37014133 403.2741687 -401.36938728 402.39812988 -401.36861038 401.49554443 C-401.09806095 398.96389359 -400.39166109 397.32545846 -399.1169281 395.14044189 C-398.1269281 395.14044189 -397.1369281 395.14044189 -396.1169281 395.14044189 C-396.12740173 394.28289307 -396.13787537 393.42534424 -396.14866638 392.54180908 C-396.18281106 389.35122676 -396.20785769 386.16073778 -396.22679138 382.97003174 C-396.23683063 381.59076874 -396.25046487 380.21152693 -396.26780701 378.83233643 C-396.29214564 376.8465905 -396.30236065 374.86068739 -396.3122406 372.87481689 C-396.32271423 371.68082275 -396.33318787 370.48682861 -396.34397888 369.25665283 C-396.12727572 366.28246025 -395.67878933 364.63725811 -394.1169281 362.14044189 C-393.1269281 362.14044189 -392.1369281 362.14044189 -391.1169281 362.14044189 C-391.1169281 355.87044189 -391.1169281 349.60044189 -391.1169281 343.14044189 C-389.7969281 343.14044189 -388.4769281 343.14044189 -387.1169281 343.14044189 C-387.14013123 342.18782471 -387.16333435 341.23520752 -387.1872406 340.25372314 C-387.20528748 338.99946533 -387.22333435 337.74520752 -387.2419281 336.45294189 C-387.26513123 335.21157471 -387.28833435 333.97020752 -387.3122406 332.69122314 C-387.12724831 329.32806332 -386.57460705 327.14188319 -385.1169281 324.14044189 C-384.1269281 324.14044189 -383.1369281 324.14044189 -382.1169281 324.14044189 C-382.1169281 319.85044189 -382.1169281 315.56044189 -382.1169281 311.14044189 C-380.4669281 310.81044189 -378.8169281 310.48044189 -377.1169281 310.14044189 C-377.1169281 305.85044189 -377.1169281 301.56044189 -377.1169281 297.14044189 C-375.7969281 296.81044189 -374.4769281 296.48044189 -373.1169281 296.14044189 C-372.7869281 293.17044189 -372.4569281 290.20044189 -372.1169281 287.14044189 C-370.7969281 286.81044189 -369.4769281 286.48044189 -368.1169281 286.14044189 C-368.1169281 281.85044189 -368.1169281 277.56044189 -368.1169281 273.14044189 C-366.4669281 272.81044189 -364.8169281 272.48044189 -363.1169281 272.14044189 C-363.1169281 269.17044189 -363.1169281 266.20044189 -363.1169281 263.14044189 C-361.7969281 263.14044189 -360.4769281 263.14044189 -359.1169281 263.14044189 C-358.7869281 260.17044189 -358.4569281 257.20044189 -358.1169281 254.14044189 C-356.7969281 254.14044189 -355.4769281 254.14044189 -354.1169281 254.14044189 C-354.1169281 251.17044189 -354.1169281 248.20044189 -354.1169281 245.14044189 C-352.4669281 244.81044189 -350.8169281 244.48044189 -349.1169281 244.14044189 C-349.1169281 241.17044189 -349.1169281 238.20044189 -349.1169281 235.14044189 C-347.4669281 235.14044189 -345.8169281 235.14044189 -344.1169281 235.14044189 C-344.1169281 232.17044189 -344.1169281 229.20044189 -344.1169281 226.14044189 C-343.1269281 225.81044189 -342.1369281 225.48044189 -341.1169281 225.14044189 C-340.31480182 223.26656973 -340.31480182 223.26656973 -339.9294281 221.07794189 C-339.77087341 220.34446533 -339.61231873 219.61098877 -339.44895935 218.85528564 C-339.33938904 218.28938721 -339.22981873 217.72348877 -339.1169281 217.14044189 C-337.7969281 216.81044189 -336.4769281 216.48044189 -335.1169281 216.14044189 C-334.7869281 214.49044189 -334.4569281 212.84044189 -334.1169281 211.14044189 C-332.7969281 211.14044189 -331.4769281 211.14044189 -330.1169281 211.14044189 C-330.1169281 208.50044189 -330.1169281 205.86044189 -330.1169281 203.14044189 C-328.7969281 202.81044189 -327.4769281 202.48044189 -326.1169281 202.14044189 C-325.7869281 200.49044189 -325.4569281 198.84044189 -325.1169281 197.14044189 C-323.7969281 197.14044189 -322.4769281 197.14044189 -321.1169281 197.14044189 C-321.1169281 194.50044189 -321.1169281 191.86044189 -321.1169281 189.14044189 C-319.4669281 188.81044189 -317.8169281 188.48044189 -316.1169281 188.14044189 C-315.7869281 186.49044189 -315.4569281 184.84044189 -315.1169281 183.14044189 C-314.1269281 183.14044189 -313.1369281 183.14044189 -312.1169281 183.14044189 C-311.7869281 181.82044189 -311.4569281 180.50044189 -311.1169281 179.14044189 C-309.7969281 178.81044189 -308.4769281 178.48044189 -307.1169281 178.14044189 C-307.1169281 175.50044189 -307.1169281 172.86044189 -307.1169281 170.14044189 C-305.4669281 169.81044189 -303.8169281 169.48044189 -302.1169281 169.14044189 C-302.1169281 167.82044189 -302.1169281 166.50044189 -302.1169281 165.14044189 C-300.7969281 164.81044189 -299.4769281 164.48044189 -298.1169281 164.14044189 C-297.7869281 162.82044189 -297.4569281 161.50044189 -297.1169281 160.14044189 C-295.7969281 160.14044189 -294.4769281 160.14044189 -293.1169281 160.14044189 C-293.1169281 158.49044189 -293.1169281 156.84044189 -293.1169281 155.14044189 C-291.4669281 155.14044189 -289.8169281 155.14044189 -288.1169281 155.14044189 C-287.7869281 153.49044189 -287.4569281 151.84044189 -287.1169281 150.14044189 C-285.7969281 150.14044189 -284.4769281 150.14044189 -283.1169281 150.14044189 C-283.1169281 147.50044189 -283.1169281 144.86044189 -283.1169281 142.14044189 C-281.7969281 141.81044189 -280.4769281 141.48044189 -279.1169281 141.14044189 C-279.0138031 140.50106689 -278.9106781 139.86169189 -278.8044281 139.20294189 C-278.5775531 138.52231689 -278.3506781 137.84169189 -278.1169281 137.14044189 C-277.1269281 136.81044189 -276.1369281 136.48044189 -275.1169281 136.14044189 C-274.38369014 134.12535831 -274.38369014 134.12535831 -274.1169281 132.14044189 C-272.4669281 132.14044189 -270.8169281 132.14044189 -269.1169281 132.14044189 C-268.7869281 130.49044189 -268.4569281 128.84044189 -268.1169281 127.14044189 C-267.1269281 126.81044189 -266.1369281 126.48044189 -265.1169281 126.14044189 C-264.7869281 125.15044189 -264.4569281 124.16044189 -264.1169281 123.14044189 C-262.0544281 122.45294189 -262.0544281 122.45294189 -260.1169281 122.14044189 C-259.7869281 120.82044189 -259.4569281 119.50044189 -259.1169281 118.14044189 C-256.4769281 118.14044189 -253.8369281 118.14044189 -251.1169281 118.14044189 C-250.7869281 116.49044189 -250.4569281 114.84044189 -250.1169281 113.14044189 C-248.7969281 113.14044189 -247.4769281 113.14044189 -246.1169281 113.14044189 C-246.1169281 111.49044189 -246.1169281 109.84044189 -246.1169281 108.14044189 C-244.4669281 108.14044189 -242.8169281 108.14044189 -241.1169281 108.14044189 C-241.1169281 106.82044189 -241.1169281 105.50044189 -241.1169281 104.14044189 C-239.7969281 103.81044189 -238.4769281 103.48044189 -237.1169281 103.14044189 C-236.7869281 101.82044189 -236.4569281 100.50044189 -236.1169281 99.14044189 C-234.7969281 99.14044189 -233.4769281 99.14044189 -232.1169281 99.14044189 C-231.9313031 98.18137939 -231.9313031 98.18137939 -231.7419281 97.20294189 C-231.5356781 96.52231689 -231.3294281 95.84169189 -231.1169281 95.14044189 C-228.40813475 93.78604522 -226.10759542 94.07542739 -223.1169281 94.14044189 C-222.7869281 92.82044189 -222.4569281 91.50044189 -222.1169281 90.14044189 C-220.7969281 89.81044189 -219.4769281 89.48044189 -218.1169281 89.14044189 C-217.7869281 87.82044189 -217.4569281 86.50044189 -217.1169281 85.14044189 C-215.7969281 85.14044189 -214.4769281 85.14044189 -213.1169281 85.14044189 C-212.9725531 84.50106689 -212.8281781 83.86169189 -212.6794281 83.20294189 C-212.1169281 81.14044189 -212.1169281 81.14044189 -211.1169281 80.14044189 C-208.78395377 80.09951252 -206.44987585 80.09802466 -204.1169281 80.14044189 C-204.1169281 78.82044189 -204.1169281 77.50044189 -204.1169281 76.14044189 C-201.6419281 75.64544189 -201.6419281 75.64544189 -199.1169281 75.14044189 C-198.7869281 73.82044189 -198.4569281 72.50044189 -198.1169281 71.14044189 C-195.4769281 71.14044189 -192.8369281 71.14044189 -190.1169281 71.14044189 C-189.7869281 69.49044189 -189.4569281 67.84044189 -189.1169281 66.14044189 C-187.7969281 66.14044189 -186.4769281 66.14044189 -185.1169281 66.14044189 C-184.7869281 64.82044189 -184.4569281 63.50044189 -184.1169281 62.14044189 C-183.55102966 62.03087158 -182.98513123 61.92130127 -182.40208435 61.80841064 C-181.66860779 61.64985596 -180.93513123 61.49130127 -180.1794281 61.32794189 C-179.44852966 61.17712158 -178.71763123 61.02630127 -177.96458435 60.87091064 C-177.35485779 60.62985596 -176.74513123 60.38880127 -176.1169281 60.14044189 C-175.7869281 59.15044189 -175.4569281 58.16044189 -175.1169281 57.14044189 C-172.1469281 57.14044189 -169.1769281 57.14044189 -166.1169281 57.14044189 C-166.1169281 55.49044189 -166.1169281 53.84044189 -166.1169281 52.14044189 C-163.1469281 52.14044189 -160.1769281 52.14044189 -157.1169281 52.14044189 C-156.7869281 50.49044189 -156.4569281 48.84044189 -156.1169281 47.14044189 C-153.4769281 46.81044189 -150.8369281 46.48044189 -148.1169281 46.14044189 C-147.7869281 45.15044189 -147.4569281 44.16044189 -147.1169281 43.14044189 C-144.1469281 42.81044189 -141.1769281 42.48044189 -138.1169281 42.14044189 C-138.1169281 40.82044189 -138.1169281 39.50044189 -138.1169281 38.14044189 C-135.1469281 38.14044189 -132.1769281 38.14044189 -129.1169281 38.14044189 C-128.7869281 36.49044189 -128.4569281 34.84044189 -128.1169281 33.14044189 C-125.1469281 33.14044189 -122.1769281 33.14044189 -119.1169281 33.14044189 C-118.7869281 31.82044189 -118.4569281 30.50044189 -118.1169281 29.14044189 C-117.20169373 29.11466064 -116.28645935 29.08887939 -115.3434906 29.06231689 C-114.15497498 29.00559814 -112.96645935 28.94887939 -111.7419281 28.89044189 C-109.96688904 28.82083252 -109.96688904 28.82083252 -108.1559906 28.74981689 C-107.15309998 28.54872314 -106.15020935 28.34762939 -105.1169281 28.14044189 C-104.4569281 26.82044189 -103.7969281 25.50044189 -103.1169281 24.14044189 C-99.1569281 24.14044189 -95.1969281 24.14044189 -91.1169281 24.14044189 C-91.1169281 22.82044189 -91.1169281 21.50044189 -91.1169281 20.14044189 C-88.35240778 18.75818173 -86.0707918 19.04518803 -82.9919281 19.07794189 C-81.89622498 19.08696533 -80.80052185 19.09598877 -79.6716156 19.10528564 C-78.82856873 19.11688721 -77.98552185 19.12848877 -77.1169281 19.14044189 C-76.7456781 18.18137939 -76.7456781 18.18137939 -76.3669281 17.20294189 C-75.1169281 15.14044189 -75.1169281 15.14044189 -73.4138031 14.39434814 C-70.38309555 14.05932095 -67.41572154 14.04745396 -64.3669281 14.07794189 C-62.61122498 14.09147705 -62.61122498 14.09147705 -60.8200531 14.10528564 C-59.92802185 14.11688721 -59.0359906 14.12848877 -58.1169281 14.14044189 C-57.7869281 13.15044189 -57.4569281 12.16044189 -57.1169281 11.14044189 C-53.92868242 9.54631906 -50.48796148 10.03869454 -46.9919281 10.07794189 C-46.23782654 10.08245361 -45.48372498 10.08696533 -44.70677185 10.09161377 C-42.84345683 10.1034069 -40.98018255 10.12134248 -39.1169281 10.14044189 C-39.0138031 9.50106689 -38.9106781 8.86169189 -38.8044281 8.20294189 C-38.4641156 7.18200439 -38.4641156 7.18200439 -38.1169281 6.14044189 C-34.9984956 5.10096439 -32.84217224 5.02549351 -29.57395935 5.04278564 C-28.50081482 5.0460083 -27.42767029 5.04923096 -26.32200623 5.05255127 C-25.20245544 5.06093018 -24.08290466 5.06930908 -22.9294281 5.07794189 C-21.23269958 5.08470947 -21.23269958 5.08470947 -19.50169373 5.09161377 C-16.70671883 5.10340691 -13.9118499 5.11986539 -11.1169281 5.14044189 C-10.7456781 4.18137939 -10.7456781 4.18137939 -10.3669281 3.20294189 C-9.1169281 1.14044189 -9.1169281 1.14044189 -7.35861111 0.52031326 C-4.86661135 0.09802369 -2.52835243 0.00838589 0 0 Z " fill="#FEFEFE" transform="translate(539.1169281005859,137.85955810546875)"/>
</svg>
