<?xml version="1.0" encoding="UTF-8"?>
<svg version="1.1" xmlns="http://www.w3.org/2000/svg" width="500" height="500">
<path d="M0 0 C1.2142012 -0.00700928 2.4284024 -0.01401855 3.67939758 -0.02124023 C6.98557219 -0.03575463 10.2907357 -0.03245785 13.59685206 -0.01972389 C17.07284607 -0.00952943 20.54879966 -0.01900754 24.02479553 -0.02526855 C29.86100938 -0.03252733 35.69702017 -0.0230051 41.53320312 -0.00390625 C48.25835047 0.01784909 54.98301239 0.01081409 61.70814794 -0.01121187 C67.50465801 -0.02942892 73.30102288 -0.03189329 79.09755236 -0.0214572 C82.54966807 -0.01525536 86.00155649 -0.0142941 89.45365715 -0.02760315 C93.30653263 -0.04142201 97.15887505 -0.02220944 101.01171875 0 C102.70387009 -0.01214539 102.70387009 -0.01214539 104.4302063 -0.02453613 C115.7269448 0.09556607 123.69393471 3.47609667 131.57055664 11.51757812 C138.92635013 19.28202681 140.1622227 27.60622511 140.08813477 37.94702148 C140.09514404 39.16122269 140.10215332 40.37542389 140.109375 41.62641907 C140.12388939 44.93259368 140.12059261 48.23775719 140.10785866 51.54387355 C140.09766419 55.01986755 140.1071423 58.49582114 140.11340332 61.97181702 C140.12066209 67.80803087 140.11113987 73.64404166 140.09204102 79.48022461 C140.07028568 86.20537195 140.07732068 92.93003388 140.09934664 99.65516943 C140.11756368 105.4516795 140.12002806 111.24804436 140.10959196 117.04457384 C140.10339013 120.49668956 140.10242887 123.94857798 140.11573792 127.40067863 C140.12955677 131.25355411 140.11034421 135.10589654 140.08813477 138.95874023 C140.09623169 140.08684113 140.10432861 141.21494202 140.1126709 142.37722778 C139.99247156 153.68310259 136.60591013 161.62898908 128.57055664 169.51757812 C120.85603877 177.02359551 111.36002229 178.11232696 101.05932617 178.06689453 C99.84819153 178.07711639 98.63705688 178.08733826 97.38922119 178.09786987 C94.09553344 178.1207657 90.80247605 178.12583222 87.50873041 178.12074327 C84.74563797 178.11858878 81.98263618 178.12840874 79.21956336 178.13795412 C72.69374988 178.160069 66.16816671 178.1610622 59.64233398 178.14892578 C52.94033294 178.1368522 46.23917228 178.16146841 39.53731453 178.20406592 C33.75517835 178.2394478 27.97330786 178.25127731 22.19106758 178.24479043 C18.74992905 178.2411879 15.3093901 178.24620022 11.86835098 178.27421951 C8.02511112 178.29904766 4.1837881 178.285309 0.34057617 178.26220703 C-0.77876312 178.27749451 -1.89810242 178.29278198 -3.05136108 178.30853271 C-13.25264231 178.17380648 -21.42651998 174.5543683 -28.92944336 167.64257812 C-34.66233187 161.42102344 -37.52632587 154.77540216 -37.59007263 146.3338623 C-37.60011826 145.28552216 -37.61016388 144.23718201 -37.62051392 143.15707397 C-37.62926041 141.43963486 -37.62926041 141.43963486 -37.63818359 139.6875 C-37.64796738 138.47724152 -37.65775116 137.26698303 -37.66783142 136.02005005 C-37.69777995 132.00881916 -37.71948362 127.99762387 -37.73803711 123.98632812 C-37.74133443 123.30214876 -37.74463175 122.6179694 -37.74802899 121.91305733 C-37.77881896 115.45063013 -37.80550533 108.98819801 -37.82244778 102.52571869 C-37.84431132 94.28498275 -37.88619529 86.04490184 -37.95588535 77.80442762 C-38.00331375 71.99699277 -38.02740662 66.18973339 -38.03464466 60.38211107 C-38.03957465 56.92067819 -38.05439676 53.45998432 -38.09438896 49.99876404 C-38.13853908 46.12659206 -38.13431693 42.25524363 -38.12646484 38.3828125 C-38.14646545 37.25404694 -38.16646606 36.12528137 -38.18707275 34.96231079 C-38.10096097 25.44868052 -35.0663203 17.77538527 -28.86694336 10.51757812 C-28.06256836 9.85757812 -27.25819336 9.19757813 -26.42944336 8.51757812 C-25.68694336 7.83695312 -24.94444336 7.15632813 -24.17944336 6.45507812 C-16.35446384 0.94202437 -9.44932628 -0.06770089 0 0 Z " fill="#FFFFFF" transform="translate(308.429443359375,270.482421875)"/>
<path d="M0 0 C1.04834015 -0.01004562 2.0966803 -0.02009125 3.17678833 -0.03044128 C4.32174774 -0.03627228 5.46670715 -0.04210327 6.6463623 -0.04811096 C7.85662079 -0.05789474 9.06687927 -0.06767853 10.31381226 -0.07775879 C14.32504314 -0.10770732 18.33623844 -0.12941098 22.34753418 -0.14796448 C23.03171354 -0.1512618 23.71589291 -0.15455912 24.42080498 -0.15795636 C30.88323217 -0.18874633 37.3456643 -0.2154327 43.80814362 -0.23237514 C52.04887955 -0.25423869 60.28896046 -0.29612265 68.52943468 -0.36581272 C74.33686953 -0.41324112 80.14412891 -0.43733398 85.95175123 -0.44457203 C89.41318411 -0.44950202 92.87387798 -0.46432413 96.33509827 -0.50431633 C100.20727024 -0.54846645 104.07861867 -0.5442443 107.9510498 -0.53639221 C109.64419815 -0.56639313 109.64419815 -0.56639313 111.37155151 -0.59700012 C120.88518178 -0.51088833 128.55847704 2.52375234 135.81628418 8.72312927 C136.80628418 9.92969177 136.80628418 9.92969177 137.81628418 11.16062927 C138.49690918 11.90312927 139.17753418 12.64562927 139.87878418 13.41062927 C145.39183793 21.23560879 146.40156319 28.14074635 146.3338623 37.59007263 C146.34087158 38.80427383 146.34788086 40.01847504 146.35510254 41.26947021 C146.36961693 44.57564483 146.36632015 47.88080833 146.3535862 51.1869247 C146.34339173 54.6629187 146.35286984 58.13887229 146.35913086 61.61486816 C146.36638963 67.45108201 146.3568674 73.2870928 146.33776855 79.12327576 C146.31601322 85.8484231 146.32304822 92.57308503 146.34507418 99.29822057 C146.36329122 105.09473064 146.3657556 110.89109551 146.3553195 116.68762499 C146.34911767 120.1397407 146.3481564 123.59162912 146.36146545 127.04372978 C146.37528431 130.89660526 146.35607175 134.74894769 146.3338623 138.60179138 C146.34195923 139.72989227 146.35005615 140.85799316 146.35839844 142.02027893 C146.23829623 153.31701743 142.85776563 161.28400735 134.81628418 169.16062927 C127.05183549 176.51642277 118.72763719 177.75229534 108.38684082 177.6782074 C107.17263962 177.68521667 105.95843842 177.69222595 104.70744324 177.69944763 C101.40126863 177.71396202 98.09610512 177.71066525 94.78998876 177.69793129 C91.31399475 177.68773682 87.83804116 177.69721494 84.36204529 177.70347595 C78.52583144 177.71073473 72.68982065 177.7012125 66.8536377 177.68211365 C60.12849035 177.66035831 53.40382843 177.66739331 46.67869288 177.68941927 C40.88218281 177.70763631 35.08581794 177.71010069 29.28928846 177.69966459 C25.83717275 177.69346276 22.38528433 177.6925015 18.93318367 177.70581055 C15.08030819 177.7196294 11.22796577 177.70041684 7.37512207 177.6782074 C6.24702118 177.68630432 5.11892029 177.69440125 3.95663452 177.70274353 C-7.34924029 177.58254419 -15.29512678 174.19598276 -23.18371582 166.16062927 C-30.68973321 158.4461114 -31.77846466 148.95009492 -31.73303223 138.6493988 C-31.74325409 137.43826416 -31.75347595 136.22712952 -31.76400757 134.97929382 C-31.7869034 131.68560607 -31.79196991 128.39254868 -31.78688097 125.09880304 C-31.78472647 122.33571061 -31.79454643 119.57270881 -31.80409181 116.809636 C-31.82620669 110.28382252 -31.82719989 103.75823934 -31.81506348 97.23240662 C-31.8029899 90.53040557 -31.82760611 83.82924491 -31.87020361 77.12738717 C-31.90558549 71.34525098 -31.91741501 65.56338049 -31.91092813 59.78114021 C-31.9073256 56.34000168 -31.91233791 52.89946273 -31.94035721 49.45842361 C-31.96518535 45.61518375 -31.9514467 41.77386073 -31.92834473 37.9306488 C-31.9436322 36.81130951 -31.95891968 35.69197021 -31.97467041 34.53871155 C-31.83994417 24.33743033 -28.22050599 16.16355265 -21.30871582 8.66062927 C-15.08716113 2.92774076 -8.44153985 0.06374677 0 0 Z " fill="#FFFFFF" transform="translate(83.1837158203125,270.83937072753906)"/>
<path d="M0 0 C1.2142012 -0.00700928 2.4284024 -0.01401855 3.67939758 -0.02124023 C6.98557219 -0.03575463 10.2907357 -0.03245785 13.59685206 -0.01972389 C17.07284607 -0.00952943 20.54879966 -0.01900754 24.02479553 -0.02526855 C29.86100938 -0.03252733 35.69702017 -0.0230051 41.53320312 -0.00390625 C48.25835047 0.01784909 54.98301239 0.01081409 61.70814794 -0.01121187 C67.50465801 -0.02942892 73.30102288 -0.03189329 79.09755236 -0.0214572 C82.54966807 -0.01525536 86.00155649 -0.0142941 89.45365715 -0.02760315 C93.30653263 -0.04142201 97.15887505 -0.02220944 101.01171875 0 C102.70387009 -0.01214539 102.70387009 -0.01214539 104.4302063 -0.02453613 C115.73608111 0.09566321 123.6819676 3.48222463 131.57055664 11.51757812 C139.07657403 19.232096 140.16530548 28.72811248 140.11987305 39.02880859 C140.13009491 40.23994324 140.14031677 41.45107788 140.15084839 42.69891357 C140.17374422 45.99260133 140.17881074 49.28565871 140.17372179 52.57940435 C140.17156729 55.34249679 140.18138725 58.10549859 140.19093263 60.8685714 C140.21304752 67.39438488 140.21404071 73.91996805 140.2019043 80.44580078 C140.18983072 87.14780183 140.21444693 93.84896248 140.25704443 100.55082023 C140.29242631 106.33295642 140.30425583 112.11482691 140.29776895 117.89706719 C140.29416642 121.33820571 140.29917873 124.77874467 140.32719803 128.21978378 C140.35202617 132.06302365 140.33828752 135.90434667 140.31518555 139.74755859 C140.33047302 140.86689789 140.3457605 141.98623718 140.36151123 143.13949585 C140.22678499 153.34077707 136.60734682 161.51465474 129.69555664 169.01757812 C123.47400195 174.75046664 116.82838067 177.61446063 108.38684082 177.6782074 C106.8143306 177.69327583 106.8143306 177.69327583 105.21005249 177.70864868 C104.06509308 177.71447968 102.92013367 177.72031067 101.74047852 177.72631836 C100.53022003 177.73610214 99.31996155 177.74588593 98.07302856 177.75596619 C94.06179768 177.78591471 90.05060238 177.80761838 86.03930664 177.82617188 C85.35512728 177.8294692 84.67094791 177.83276652 83.96603584 177.83616376 C77.50360865 177.86695373 71.04117652 177.89364009 64.5786972 177.91058254 C56.33796127 177.93244609 48.09788036 177.97433005 39.85740614 178.04402012 C34.04997129 178.09144852 28.24271191 178.11554138 22.43508959 178.12277943 C18.97365671 178.12770942 15.51296284 178.14253152 12.05174255 178.18252373 C8.17957058 178.22667385 4.30822215 178.22245169 0.43579102 178.21459961 C-1.25735733 178.24460052 -1.25735733 178.24460052 -2.98471069 178.27520752 C-12.49834096 178.18909573 -20.17163622 175.15445506 -27.42944336 168.95507812 C-28.08944336 168.15070313 -28.74944336 167.34632813 -29.42944336 166.51757812 C-30.45038086 165.40382812 -30.45038086 165.40382812 -31.49194336 164.26757812 C-37.00499711 156.44259861 -38.01472237 149.53746105 -37.94702148 140.08813477 C-37.95403076 138.87393356 -37.96104004 137.65973236 -37.96826172 136.40873718 C-37.98277611 133.10256257 -37.97947933 129.79739906 -37.96674538 126.4912827 C-37.95655091 123.0152887 -37.96602902 119.53933511 -37.97229004 116.06333923 C-37.97954881 110.22712538 -37.97002658 104.39111459 -37.95092773 98.55493164 C-37.9291724 91.8297843 -37.9362074 85.10512237 -37.95823336 78.37998682 C-37.9764504 72.58347675 -37.97891478 66.78711189 -37.96847868 60.99058241 C-37.96227685 57.53846669 -37.96131558 54.08657827 -37.97462463 50.63447762 C-37.98844349 46.78160214 -37.96923093 42.92925971 -37.94702148 39.07641602 C-37.95511841 37.94831512 -37.96321533 36.82021423 -37.97155762 35.65792847 C-37.85145541 24.36118997 -34.47092481 16.39420005 -26.42944336 8.51757812 C-18.66499467 1.16178463 -10.34079637 -0.07408794 0 0 Z " fill="#FFFFFF" transform="translate(308.429443359375,51.482421875)"/>
<path d="M0 0 C1.21113464 -0.01022186 2.42226929 -0.02044373 3.67010498 -0.03097534 C6.96379273 -0.05387117 10.25685012 -0.05893769 13.55059576 -0.05384874 C16.3136882 -0.05169425 19.07668999 -0.06151421 21.83976281 -0.07105958 C28.36557629 -0.09317447 34.89115946 -0.09416767 41.41699219 -0.08203125 C48.11899324 -0.06995767 54.82015389 -0.09457388 61.52201164 -0.13717139 C67.30414782 -0.17255327 73.08601831 -0.18438278 78.8682586 -0.1778959 C82.30939712 -0.17429337 85.74993607 -0.17930569 89.19097519 -0.20732498 C93.03421506 -0.23215313 96.87553807 -0.21841447 100.71875 -0.1953125 C101.83808929 -0.21059998 102.95742859 -0.22588745 104.11068726 -0.24163818 C114.31196848 -0.10691195 122.48584615 3.51252623 129.98876953 10.42431641 C135.72165805 16.64587109 138.58565204 23.29149238 138.6493988 31.73303223 C138.66446724 33.30554245 138.66446724 33.30554245 138.67984009 34.90982056 C138.68567108 36.05477997 138.69150208 37.19973938 138.69750977 38.37939453 C138.70729355 39.58965302 138.71707733 40.7999115 138.72715759 42.04684448 C138.75710612 46.05807537 138.77880979 50.06927066 138.79736328 54.08056641 C138.8006606 54.76474577 138.80395792 55.44892513 138.80735517 56.1538372 C138.83814514 62.6162644 138.8648315 69.07869652 138.88177395 75.54117584 C138.90363749 83.78191178 138.94552146 92.02199269 139.01521152 100.26246691 C139.06263992 106.06990176 139.08673279 111.87716114 139.09397084 117.68478346 C139.09890083 121.14621634 139.11372293 124.60691021 139.15371513 128.06813049 C139.19786525 131.94030247 139.1936431 135.8116509 139.18579102 139.68408203 C139.21579193 141.37723038 139.21579193 141.37723038 139.24639893 143.10458374 C139.16028714 152.61821401 136.12564647 160.29150926 129.92626953 167.54931641 C129.12189453 168.20931641 128.31751953 168.86931641 127.48876953 169.54931641 C126.74626953 170.22994141 126.00376953 170.91056641 125.23876953 171.61181641 C117.41379001 177.12487016 110.50865246 178.13459542 101.05932617 178.06689453 C99.84512497 178.07390381 98.63092377 178.08091309 97.37992859 178.08813477 C94.07375398 178.10264916 90.76859047 178.09935238 87.46247411 178.08661842 C83.9864801 178.07642396 80.51052651 178.08590207 77.03453064 178.09216309 C71.19831679 178.09942186 65.362306 178.08989963 59.52612305 178.07080078 C52.8009757 178.04904544 46.07631378 178.05608044 39.35117823 178.0781064 C33.55466816 178.09632345 27.75830329 178.09878782 21.96177381 178.08835173 C18.5096581 178.08214989 15.05776968 178.08118863 11.60566902 178.09449768 C7.75279355 178.10831654 3.90045112 178.08910397 0.04760742 178.06689453 C-1.08049347 178.07499146 -2.20859436 178.08308838 -3.37088013 178.09143066 C-14.66761862 177.97132846 -22.63460854 174.59079786 -30.51123047 166.54931641 C-37.86702396 158.78486772 -39.10289653 150.46066942 -39.02880859 140.11987305 C-39.03581787 138.90567184 -39.04282715 137.69147064 -39.05004883 136.44047546 C-39.06456322 133.13430085 -39.06126644 129.82913734 -39.04853249 126.52302098 C-39.03833802 123.04702698 -39.04781613 119.57107339 -39.05407715 116.09507751 C-39.06133592 110.25886366 -39.05181369 104.42285288 -39.03271484 98.58666992 C-39.01095951 91.86152258 -39.01799451 85.13686065 -39.04002047 78.4117251 C-39.05823751 72.61521504 -39.06070189 66.81885017 -39.05026579 61.02232069 C-39.04406396 57.57020497 -39.04310269 54.11831655 -39.05641174 50.6662159 C-39.0702306 46.81334042 -39.05101804 42.96099799 -39.02880859 39.1081543 C-39.03690552 37.98005341 -39.04500244 36.85195251 -39.05334473 35.68966675 C-38.93314539 24.38379194 -35.54658396 16.43790545 -27.51123047 8.54931641 C-19.7967126 1.04329902 -10.30069612 -0.04543243 0 0 Z " fill="#FFFFFF" transform="translate(90.51123046875,51.45068359375)"/>
</svg>
