<svg version="1.2" xmlns="http://www.w3.org/2000/svg" viewBox="0 0 100 100" width="100" height="100">
	<style>
		.s0 { fill: #ffffff } 
	</style>
	<path class="s0" d="m18.28 23.35q1.07-0.01 2.17-0.02 3.52-0.03 7.05 0.01 2.46-0.01 4.92-0.02 5.15-0.01 10.3 0.03 6.59 0.03 13.18-0.02 5.08-0.02 10.16 0 2.43 0.01 4.86-0.01 3.4-0.01 6.8 0.03 1.92 0.01 3.9 0.02c4.25 0.79 5.74 2.27 8.38 5.63 0.49 2.89 0.49 2.89 0.31 5.81q-0.06 1.46-0.13 2.96-0.09 1.1-0.18 2.23 2.95 0 6 0c0 6.6 0 13.2 0 20q-2.96 0-6 0 0.09 1.1 0.18 2.23c0.06 1.46 0.06 1.46 0.13 2.96q0.09 1.43 0.18 2.92c-0.69 4.05-2.32 5.33-5.49 7.89-3.38 0.63-3.38 0.63-7.28 0.65q-1.07 0.01-2.17 0.02-3.52 0.03-7.05-0.01-2.46 0.01-4.92 0.02-5.15 0.01-10.3-0.03-6.59-0.03-13.18 0.02-5.08 0.02-10.16 0-2.43-0.01-4.86 0.01-3.4 0.01-6.8-0.03-1.92-0.01-3.9-0.02c-4.28-0.8-5.76-2.2-8.38-5.63-0.63-2.16-0.63-2.16-0.65-4.34q-0.02-1.23-0.04-2.5 0.01-1.31 0.03-2.66-0.01-1.36-0.02-2.77 0-2.89 0.03-5.78 0.03-4.41-0.03-8.82 0-2.82 0.02-5.63-0.02-1.31-0.03-2.66 0.02-1.23 0.04-2.5 0.01-1.07 0.02-2.18c1.93-6.58 6.71-7.79 12.91-7.81zm22.09 23.15q-1.05 0.5-2.14 1.01-2.61 1.24-5.23 2.49c3.12 0.97 5.52 0.99 8.75 0.56q1.19-0.15 2.42-0.31 0.9-0.12 1.83-0.25c0 2.31 0 4.62 0 7 5.92-1.76 11.42-4.4 17-7-3.12-0.97-5.52-0.99-8.75-0.56-1.2 0.15-1.2 0.15-2.42 0.31q-0.9 0.12-1.83 0.25c0-2.31 0-4.62 0-7-3.49 0-6.52 2.02-9.63 3.5z"/>
	<path id="Shape 1" fill-rule="evenodd" class="s0" d="m66 38v23h-39v-23z"/>
</svg>