<?xml version="1.0" encoding="UTF-8"?>
<svg version="1.1" xmlns="http://www.w3.org/2000/svg" width="100" height="100">
<path d="M0 0 C0.71446289 -0.0087616 1.42892578 -0.01752319 2.16503906 -0.02655029 C4.51690151 -0.04848224 6.86686987 -0.03401601 9.21875 -0.01708984 C10.85872761 -0.02045982 12.49870279 -0.02531396 14.13867188 -0.03158569 C17.57185703 -0.03894853 21.00439072 -0.02827126 24.4375 -0.00488281 C28.83284357 0.02360553 33.22666065 0.00719826 37.62194824 -0.02274513 C41.00727794 -0.04083458 44.39224719 -0.03505273 47.77758789 -0.02210617 C49.39786969 -0.01877666 51.01818448 -0.02284327 52.63842773 -0.03450394 C54.90566356 -0.04724101 57.17044642 -0.02780132 59.4375 0 C60.72591797 0.00397797 62.01433594 0.00795593 63.34179688 0.01205444 C67.58879212 0.81055372 69.08047646 2.29043605 71.71875 5.64697266 C72.20703125 8.54150391 72.20703125 8.54150391 72.03125 11.45947266 C71.98613281 12.43529297 71.94101563 13.41111328 71.89453125 14.41650391 C71.83652344 15.15255859 71.77851562 15.88861328 71.71875 16.64697266 C73.69875 16.64697266 75.67875 16.64697266 77.71875 16.64697266 C77.71875 23.24697266 77.71875 29.84697266 77.71875 36.64697266 C75.73875 36.64697266 73.75875 36.64697266 71.71875 36.64697266 C71.77675781 37.38302734 71.83476563 38.11908203 71.89453125 38.87744141 C71.96220703 40.34117188 71.96220703 40.34117188 72.03125 41.83447266 C72.08925781 42.79740234 72.14726563 43.76033203 72.20703125 44.75244141 C71.52225846 48.81177448 69.89243289 50.08645383 66.71875 52.64697266 C63.34179688 53.28189087 63.34179688 53.28189087 59.4375 53.29394531 C58.72303711 53.30270691 58.00857422 53.31146851 57.27246094 53.32049561 C54.92059849 53.34242756 52.57063013 53.32796132 50.21875 53.31103516 C48.57877239 53.31440513 46.93879721 53.31925927 45.29882812 53.32553101 C41.86564297 53.33289384 38.43310928 53.32221657 35 53.29882812 C30.60465643 53.27033979 26.21083935 53.28674705 21.81555176 53.31669044 C18.43022206 53.33477989 15.04525281 53.32899804 11.65991211 53.31605148 C10.03963031 53.31272198 8.41931552 53.31678858 6.79907227 53.32844925 C4.53183644 53.34118632 2.26705358 53.32174663 0 53.29394531 C-1.28841797 53.28996735 -2.57683594 53.28598938 -3.90429688 53.28189087 C-8.1832891 52.47737568 -9.66493998 51.07337279 -12.28125 47.64697266 C-12.91616821 45.48486328 -12.91616821 45.48486328 -12.92822266 43.30322266 C-12.94398346 42.47886719 -12.95974426 41.65451172 -12.97598267 40.80517578 C-12.96586151 39.92796875 -12.95574036 39.05076172 -12.9453125 38.14697266 C-12.95009613 37.23367187 -12.95487976 36.32037109 -12.95980835 35.37939453 C-12.96320317 33.45294467 -12.95402994 31.52643687 -12.93310547 29.60009766 C-12.90633281 26.65607918 -12.93286622 23.71587295 -12.96484375 20.77197266 C-12.96153958 18.89696426 -12.95513318 17.02195824 -12.9453125 15.14697266 C-12.95543365 14.26976562 -12.96555481 13.39255859 -12.97598267 12.48876953 C-12.96022186 11.66441406 -12.94446106 10.84005859 -12.92822266 9.99072266 C-12.92424469 9.27078125 -12.92026672 8.55083984 -12.91616821 7.80908203 C-10.98458697 1.23140031 -6.20454508 0.01915642 0 0 Z M22.09375 23.14697266 C21.38734375 23.48083984 20.6809375 23.81470703 19.953125 24.15869141 C18.20671136 24.98469786 16.46251766 25.81539489 14.71875 26.64697266 C17.84055401 27.61358628 20.23958795 27.63686175 23.46875 27.20947266 C24.26796875 27.10763672 25.0671875 27.00580078 25.890625 26.90087891 C26.49390625 26.81708984 27.0971875 26.73330078 27.71875 26.64697266 C27.71875 28.95697266 27.71875 31.26697266 27.71875 33.64697266 C33.63844002 31.88706481 39.13509992 29.25002661 44.71875 26.64697266 C41.59694599 25.68035903 39.19791205 25.65708356 35.96875 26.08447266 C34.76992188 26.23722656 34.76992188 26.23722656 33.546875 26.39306641 C32.94359375 26.47685547 32.3403125 26.56064453 31.71875 26.64697266 C31.71875 24.33697266 31.71875 22.02697266 31.71875 19.64697266 C28.23060167 19.64697266 25.19595528 21.66455353 22.09375 23.14697266 Z " fill="#FFFFFF" transform="translate(18.28125,23.35302734375)"/>
</svg>
