<?xml version="1.0" encoding="UTF-8"?>
<svg version="1.1" xmlns="http://www.w3.org/2000/svg" width="100" height="100">
<path d="M0 0 C3.39979578 0.98219242 6.44978388 1.02905319 9.99145508 0.93432617 C23.00737917 0.59243129 23.00737917 0.59243129 29 4 C33.61336091 8.84994352 34.46103804 12.29721855 34.41796875 18.84375 C33.54907887 25.40508663 30.15757252 31.45050887 25.9140625 36.46484375 C23.73254301 39.35424406 23.01855908 41.69410949 22.125 45.1875 C19.23212334 55.11073972 14.70732206 63.14044937 6 69 C-4.7556305 74.81589571 -15.6447255 77.12702289 -27.625 73.5625 C-29.85153349 72.81671936 -31.90070346 72.04964827 -34 71 C-35.81250532 70.97963477 -37.62569047 71.00831064 -39.4375 71.0625 C-47.92982713 71.11347435 -56.34078912 70.82680952 -63 65 C-66.31607215 61.2417849 -66.56943848 57.53122467 -66.41796875 52.69140625 C-65.47524667 46.6209809 -62.46926812 41.60919842 -58.375 37.125 C-55.40948491 33.22300647 -54.84724712 29.75496184 -53.80078125 25.03125 C-51.34128579 15.72115986 -45.30663226 7.8815326 -37.25 2.75 C-24.89745045 -4.14530378 -13.25830011 -4.6356013 0 0 Z M-40 17 C-45.50069901 25.10053187 -46.90720099 32.24758936 -46 42 C-44.35866054 47.949453 -44.35866054 47.949453 -41 53 C-26.02988047 54.95123353 -11.16989019 46.89282886 0.375 38.125 C4.98542758 34.28297702 8.57085377 29.90526878 12 25 C8.56266945 16.83633994 3.69572131 11.69249646 -4.1875 7.5625 C-17.14206846 2.40300808 -31.04064866 6.80624914 -40 17 Z M2.8125 54.5625 C-3.83869769 58.65479344 -10.89248427 61.79687958 -18 65 C-18 65.33 -18 65.66 -18 66 C-9.02034977 66.89796502 -1.96129491 63.93577585 5.09765625 58.3359375 C6.93552546 56.63535982 6.93552546 56.63535982 9 54 C9 53.34 9 52.68 9 52 C6.28385988 52 5.0989735 53.09563341 2.8125 54.5625 Z " fill="#FFFFFF" transform="translate(66,14)"/>
</svg>
