<?xml version="1.0" encoding="UTF-8"?>
<svg version="1.1" xmlns="http://www.w3.org/2000/svg" width="512" height="512">
<path d="M0 0 C0.68999084 -0.0049649 1.37998169 -0.00992981 2.09088135 -0.01504517 C4.36821501 -0.02962076 6.64547896 -0.0364618 8.92285156 -0.04199219 C10.51222738 -0.04774833 12.1016032 -0.053506 13.690979 -0.05926514 C17.02315595 -0.06976266 20.35530886 -0.07561319 23.6875 -0.07910156 C27.94206445 -0.08457745 32.19630746 -0.1085912 36.45077133 -0.13707352 C39.73489283 -0.15576706 43.01893802 -0.1609091 46.30310822 -0.16243744 C47.87068688 -0.16545039 49.43826464 -0.17343273 51.00579071 -0.18662262 C60.6147975 -0.26169273 68.06001976 -0.11035817 76.31347656 5.28613281 C81.92756102 11.15540292 83.36947815 17.92724122 84.63378906 25.73925781 C84.76233276 26.51828461 84.89087646 27.2973114 85.02331543 28.09994507 C85.5547192 31.36243135 86.07780782 34.62408636 86.53808594 37.89746094 C87.54747167 47.40729767 87.54747167 47.40729767 92.27148438 55.2565918 C94.84613399 56.55249224 97.29017143 57.39215407 100.06347656 58.16113281 C101.35794214 58.73780675 102.64101785 59.34121409 103.90722656 59.97753906 C104.50519043 60.26097168 105.1031543 60.5444043 105.71923828 60.83642578 C116.16002068 65.85916913 127.81339902 71.91105527 136.06347656 80.16113281 C141.19434857 79.8093878 145.78519945 78.37847028 150.57910156 76.62207031 C152.00977557 76.11856855 153.44077595 75.61599339 154.87207031 75.11425781 C157.09143565 74.32928273 159.30784665 73.53818935 161.51904297 72.73046875 C179.95084351 66.02874337 179.95084351 66.02874337 189.51708984 70.24169922 C195.71590085 73.86056894 198.83400514 78.71689429 202.18847656 84.91113281 C202.72561279 85.86052734 203.26274902 86.80992187 203.81616211 87.78808594 C204.97120429 89.83046391 206.11801886 91.87751287 207.25732422 93.92871094 C209.76190393 98.41108933 212.34225587 102.84819121 214.91992188 107.28881836 C217.43421697 111.62356101 219.93020452 115.96870818 222.42626953 120.31396484 C223.86510934 122.81616435 225.30865295 125.31554435 226.75488281 127.81347656 C227.48284756 129.07513753 228.21072282 130.33685012 228.93847656 131.59863281 C229.53402344 132.62859375 230.12957031 133.65855469 230.74316406 134.71972656 C233.99769371 140.73771777 234.02648508 147.72015137 232.59082031 154.34082031 C228.88838078 163.30853817 218.53698234 169.99588774 211.25097656 175.97363281 C210.3628125 176.70839844 209.47464844 177.44316406 208.55957031 178.20019531 C206.06347656 180.16113281 206.06347656 180.16113281 203.78613281 181.55957031 C201.64980268 182.95558802 200.3805102 183.9691793 199.06347656 186.16113281 C198.80863709 189.35412148 199.1875427 192.2714188 199.59082031 195.45019531 C200.32859446 201.66877737 200.20324892 207.90790997 200.18847656 214.16113281 C200.19459961 215.39081787 200.20072266 216.62050293 200.20703125 217.88745117 C200.20872519 224.19612367 199.87314149 230.12822304 198.87597656 236.34863281 C198.53536983 240.24128116 198.55266391 241.52617845 201.02441406 244.59863281 C203.92329863 246.99083555 206.95897799 249.04425983 210.06347656 251.16113281 C212.21592504 252.98512968 214.26567998 254.90858074 216.31347656 256.84863281 C219.47502509 259.80687767 222.65815666 262.67094537 226.06347656 265.34863281 C230.45158724 269.13592638 232.52217567 273.15778593 233.54785156 278.84863281 C234.17716472 287.94946918 230.48983372 294.56302826 226.06347656 302.16113281 C225.57508301 303.01223633 225.08668945 303.86333984 224.58349609 304.74023438 C221.08959302 310.82515747 217.53785841 316.87460169 213.97021484 322.91650391 C212.02601595 326.2248782 210.10241378 329.54444996 208.18457031 332.86816406 C207.55687744 333.95371582 206.92918457 335.03926758 206.2824707 336.15771484 C205.07965341 338.23911587 203.87949305 340.32205524 202.68237305 342.40673828 C194.11383164 357.18687288 194.11383164 357.18687288 184.91870117 359.76171875 C175.14974874 361.29021414 166.70770729 357.4654756 157.68847656 354.16113281 C155.24902871 353.27905623 152.80778452 352.40356743 150.3609314 351.54223633 C148.84822395 351.00868825 147.33977535 350.46285846 145.83657837 349.90307617 C141.87145643 348.4929959 139.09001745 347.72112115 135.06347656 349.16113281 C132.91564421 350.58439522 130.90884606 352.02847528 128.87597656 353.59863281 C118.01067989 361.65747641 106.14464624 368.60674942 93.25097656 372.83300781 C90.12654049 374.72998686 90.0441772 376.6845402 89.06347656 380.16113281 C88.58013229 382.49186246 88.13879525 384.8315524 87.73144531 387.17675781 C87.4879597 388.52453256 87.24379725 389.87218517 86.99902344 391.21972656 C86.62374433 393.30927674 86.2530154 395.39924029 85.89428711 397.49169922 C82.56537041 416.78070659 82.56537041 416.78070659 75.74707031 423.41503906 C75.00585938 423.846875 74.26464844 424.27871094 73.50097656 424.72363281 C72.7571875 425.17867188 72.01339844 425.63371094 71.24707031 426.10253906 C66.87937091 428.21997473 62.96030607 428.29578043 58.12695312 428.32226562 C57.43696228 428.32723053 56.74697144 428.33219543 56.03607178 428.33731079 C53.75873812 428.35188638 51.48147416 428.35872742 49.20410156 428.36425781 C47.61472574 428.37001395 46.02534993 428.37577162 44.43597412 428.38153076 C41.10379718 428.39202829 37.77164427 428.39787882 34.43945312 428.40136719 C30.18488867 428.40684308 25.93064566 428.43085682 21.67618179 428.45933914 C18.39206029 428.47803268 15.1080151 428.48317473 11.82384491 428.48470306 C10.25626624 428.48771602 8.68868848 428.49569835 7.12116241 428.50888824 C-2.48784437 428.58395836 -9.93306664 428.4326238 -18.18652344 423.03613281 C-23.80060789 417.1668627 -25.24252502 410.3950244 -26.50683594 402.58300781 C-26.63537964 401.80398102 -26.76392334 401.02495422 -26.8963623 400.22232056 C-27.42776607 396.95983428 -27.95085469 393.69817926 -28.41113281 390.42480469 C-29.42051855 380.91496795 -29.42051855 380.91496795 -34.14453125 373.06567383 C-36.71918086 371.76977339 -39.1632183 370.93011155 -41.93652344 370.16113281 C-43.23098902 369.58445888 -44.51406472 368.98105153 -45.78027344 368.34472656 C-46.3782373 368.06129395 -46.97620117 367.77786133 -47.59228516 367.48583984 C-58.03306755 362.4630965 -69.68644589 356.41121036 -77.93652344 348.16113281 C-83.06739545 348.51287783 -87.65824633 349.94379534 -92.45214844 351.70019531 C-93.88282244 352.20369707 -95.31382283 352.70627223 -96.74511719 353.20800781 C-98.96448253 353.9929829 -101.18089352 354.78407628 -103.39208984 355.59179688 C-112.84779183 359.02985046 -121.510591 362.07055219 -131.37548828 358.20556641 C-139.03533282 354.43816989 -142.54004848 346.04079603 -146.43798828 338.88085938 C-149.32945829 333.63306272 -152.3683596 328.46905364 -155.37402344 323.28613281 C-156.65724372 321.05865304 -157.93980135 318.83079138 -159.22167969 316.60253906 C-161.57261523 312.52048773 -163.9332329 308.44443211 -166.30761719 304.37597656 C-166.8181665 303.49989746 -167.32871582 302.62381836 -167.85473633 301.72119141 C-168.80087688 300.09910027 -169.74916066 298.47825666 -170.69995117 296.85888672 C-171.11575439 296.14522949 -171.53155762 295.43157227 -171.95996094 294.69628906 C-172.32009277 294.08148682 -172.68022461 293.46668457 -173.05126953 292.83325195 C-176.03793174 287.1918704 -175.79118742 280.10247579 -174.46386719 273.98144531 C-170.76142766 265.01372746 -160.41002922 258.32637788 -153.12402344 252.34863281 C-151.79177734 251.24648438 -151.79177734 251.24648438 -150.43261719 250.12207031 C-147.93652344 248.16113281 -147.93652344 248.16113281 -145.65917969 246.76269531 C-143.52284955 245.3666776 -142.25355708 244.35308633 -140.93652344 242.16113281 C-140.68168397 238.96814415 -141.06058957 236.05084683 -141.46386719 232.87207031 C-142.20164133 226.65348825 -142.0762958 220.41435565 -142.06152344 214.16113281 C-142.06764648 212.93144775 -142.07376953 211.7017627 -142.08007812 210.43481445 C-142.08177207 204.12614196 -141.74618836 198.19404259 -140.74902344 191.97363281 C-140.4165936 188.11455604 -140.41885801 186.80690206 -142.86230469 183.75878906 C-145.24348801 181.79801727 -147.68140714 180.06635687 -150.25146484 178.36523438 C-153.33246072 176.16363025 -156.01147009 173.51821282 -158.74902344 170.91113281 C-161.82107987 168.01596661 -164.88733069 165.17493997 -168.17480469 162.52441406 C-172.58203485 158.75302192 -174.3921337 155.16180903 -175.42480469 149.46972656 C-176.04280758 140.36933098 -172.36316568 133.75972674 -167.93652344 126.16113281 C-167.44812988 125.3100293 -166.95973633 124.45892578 -166.45654297 123.58203125 C-162.96263989 117.49710815 -159.41090528 111.44766393 -155.84326172 105.40576172 C-153.89906283 102.09738742 -151.97546066 98.77781566 -150.05761719 95.45410156 C-149.42992432 94.3685498 -148.80223145 93.28299805 -148.15551758 92.16455078 C-146.95270029 90.08314975 -145.75253992 88.00021038 -144.55541992 85.91552734 C-135.98687851 71.13539274 -135.98687851 71.13539274 -126.79174805 68.56054688 C-117.02279562 67.03205148 -108.58075417 70.85679002 -99.56152344 74.16113281 C-97.12207559 75.04320939 -94.68083139 75.9186982 -92.23397827 76.7800293 C-90.72127082 77.31357737 -89.21282222 77.85940717 -87.70962524 78.41918945 C-83.74450331 79.82926973 -80.96306432 80.60114447 -76.93652344 79.16113281 C-74.78869108 77.73787041 -72.78189294 76.29379035 -70.74902344 74.72363281 C-59.88372676 66.66478922 -48.01769312 59.71551621 -35.12402344 55.48925781 C-31.99958736 53.59227877 -31.91722407 51.63772542 -30.93652344 48.16113281 C-30.45317917 45.83040316 -30.01184212 43.49071322 -29.60449219 41.14550781 C-29.36100658 39.79773306 -29.11684412 38.45008045 -28.87207031 37.10253906 C-28.4967912 35.01298888 -28.12606227 32.92302533 -27.76733398 30.83056641 C-24.43841729 11.54155904 -24.43841729 11.54155904 -17.62011719 4.90722656 C-16.87890625 4.47539063 -16.13769531 4.04355469 -15.37402344 3.59863281 C-14.63023437 3.14359375 -13.88644531 2.68855469 -13.12011719 2.21972656 C-8.75241778 0.10229089 -4.83335294 0.0264852 0 0 Z M-27.93652344 151.16113281 C-28.69835937 151.82757813 -29.46019531 152.49402344 -30.24511719 153.18066406 C-44.51823895 166.5137882 -55.08487905 187.57331192 -55.93652344 207.16113281 C-55.98808594 208.16144531 -56.03964844 209.16175781 -56.09277344 210.19238281 C-56.70665153 232.90587206 -48.96681038 254.0749471 -33.93652344 271.16113281 C-32.93685547 272.30388672 -32.93685547 272.30388672 -31.91699219 273.46972656 C-18.58386805 287.74284832 2.47565567 298.30948843 22.06347656 299.16113281 C23.06378906 299.21269531 24.06410156 299.26425781 25.09472656 299.31738281 C47.80821581 299.9312609 68.97729085 292.19141976 86.06347656 277.16113281 C86.8253125 276.4946875 87.58714844 275.82824219 88.37207031 275.14160156 C102.64519207 261.80847742 113.21183218 240.74895371 114.06347656 221.16113281 C114.11503906 220.16082031 114.16660156 219.16050781 114.21972656 218.12988281 C114.83360465 195.41639356 107.09376351 174.24731853 92.06347656 157.16113281 C91.39703125 156.39929688 90.73058594 155.63746094 90.04394531 154.85253906 C76.71082117 140.5794173 55.65129746 130.0127772 36.06347656 129.16113281 C35.06316406 129.10957031 34.06285156 129.05800781 33.03222656 129.00488281 C10.31873731 128.39100472 -10.85033772 136.13084587 -27.93652344 151.16113281 Z " fill="#FFFFFF" transform="translate(226.9365234375,41.8388671875)"/>
</svg>
